<?xml version="1.0" encoding="UTF-8"?>
<svg version="1.1" xmlns="http://www.w3.org/2000/svg" width="750" height="750">
<path d="M0 0 C247.5 0 495 0 750 0 C750 247.5 750 495 750 750 C502.5 750 255 750 0 750 C0 502.5 0 255 0 0 Z " fill="#FEFEFE" transform="translate(0,0)"/>
<path d="M0 0 C0.66 0 1.32 0 2 0 C3.83590522 2.19181576 5.52042043 4.37301089 7.1875 6.6875 C7.66380859 7.31333984 8.14011719 7.93917969 8.63085938 8.58398438 C12.01149124 13.25620352 12.01149124 13.25620352 11.95703125 16.78125 C11 19 11 19 8.5 21.8125 C4.19006463 27.3520711 5.08844502 35.30229993 5 42 C11.27796009 39.87582557 11.27796009 39.87582557 15.625 35.25 C16.07875 34.5075 16.5325 33.765 17 33 C20.5625 32.5625 20.5625 32.5625 24 33 C24.66 33.66 25.32 34.32 26 35 C25.625 37.625 25.625 37.625 25 40 C24.505 38.02 24.505 38.02 24 36 C22.68 36.33 21.36 36.66 20 37 C20 38.65 20 40.3 20 42 C21.65 42.33 23.3 42.66 25 43 C25 53.23 25 63.46 25 74 C25.66 74 26.32 74 27 74 C27 73.34 27 72.68 27 72 C27.66 72 28.32 72 29 72 C29.226875 71.46375 29.45375 70.9275 29.6875 70.375 C31 68 31 68 33.5 65.1875 C36.20071452 62.0828663 36.98584127 58.97862273 38 55 C40.76250036 53.61874982 42.94731099 53.80920694 46 54 C48 56 48 56 48.25 59.5 C48 63 48 63 46 65 C44.89398438 65.10054688 43.78796875 65.20109375 42.6484375 65.3046875 C38.10590832 66.17039435 37.25875435 67.42159828 34.625 71.125 C30.67683239 76.31924452 26.57262046 80.54803849 21 84 C20.34 84 19.68 84 19 84 C18.87757443 70.62359426 19.07726164 57.34675129 20 44 C15.86803968 43.85459377 12.55452793 44.22555851 8.625 45.5 C7.75101563 45.7784375 6.87703125 46.056875 5.9765625 46.34375 C5.32429688 46.5603125 4.67203125 46.776875 4 47 C4 49.64 4 52.28 4 55 C4.78375 55.12375 5.5675 55.2475 6.375 55.375 C9 56 9 56 11 58 C10.9765625 61.0390625 10.9765625 61.0390625 10.625 64.625 C10.51414063 65.81351562 10.40328125 67.00203125 10.2890625 68.2265625 C10.14597656 69.59941406 10.14597656 69.59941406 10 71 C8.21484375 71.6875 8.21484375 71.6875 6 72 C4.25390625 70.75 4.25390625 70.75 2.5625 69 C0.8159197 67.30340189 0.8159197 67.30340189 -1 66 C-3.85945818 65.94949548 -3.85945818 65.94949548 -6 67 C-6 67.99 -6 68.98 -6 70 C-4.92878906 69.90460938 -3.85757813 69.80921875 -2.75390625 69.7109375 C1 70 1 70 3.16015625 71.9140625 C3.78792969 72.80867188 4.41570312 73.70328125 5.0625 74.625 C14.37562932 87.74678826 14.37562932 87.74678826 27.4609375 96.02734375 C30.65290135 96.12395283 32.99827358 96.09241573 36 95 C37.644446 93.00729227 37.644446 93.00729227 39 91 C42.1506804 90.54052577 44.07837528 90.47774599 46.875 92.0625 C48.64273274 95.1069286 48.36823916 97.5631012 48 101 C46.8125 102.9375 46.8125 102.9375 45 104 C42.5 104.375 42.5 104.375 40 104 C39.56042969 103.51144531 39.12085938 103.02289063 38.66796875 102.51953125 C36.42225389 100.47366924 34.80689162 100.50694101 31.8125 100.3125 C30.91144531 100.24675781 30.01039063 100.18101562 29.08203125 100.11328125 C28.39496094 100.07589844 27.70789063 100.03851563 27 100 C26.76495398 101.94752418 26.5311031 103.89520361 26.3046875 105.84375 C26 108 26 108 25.1875 111.125 C24.92736122 115.11379458 26.77870715 116.76902858 29 120 C29.45417493 123.30898877 29.56579542 125.0768601 27.8125 127.9375 C26 129 26 129 23.5 128.9375 C20.457772 127.7966645 19.635261 126.77410349 18 124 C18.09375 121.80859375 18.09375 121.80859375 18.5 119.4375 C18.66408709 115.48768932 18.15934705 114.20758476 15.703125 111.0078125 C11.77615193 106.9319083 7.53023588 103.39767691 3 100 C2.67 110.23 2.34 120.46 2 131 C2.99 131.33 3.98 131.66 5 132 C6.5121867 135.02437339 6.17263369 137.66241534 6 141 C5 143.4375 5 143.4375 4 145 C1.66705225 145.04241723 -0.66702567 145.04092937 -3 145 C-4 144 -4 144 -4.1328125 141.3125 C-4.13023438 140.219375 -4.12765625 139.12625 -4.125 138 C-4.12757812 136.906875 -4.13015625 135.81375 -4.1328125 134.6875 C-4 132 -4 132 -3 131 C-2.84028023 128.62661361 -2.7407567 126.27881728 -2.68359375 123.90234375 C-2.66281265 123.19348526 -2.64203156 122.48462677 -2.62062073 121.75428772 C-2.55505402 119.48212695 -2.4962077 117.20984736 -2.4375 114.9375 C-2.39432151 113.40037817 -2.35070745 111.8632685 -2.30664062 110.32617188 C-2.19936551 106.5509041 -2.09811863 102.7755164 -2 99 C-2.66 99 -3.32 99 -4 99 C-4.25652344 99.57878906 -4.51304688 100.15757812 -4.77734375 100.75390625 C-6.51283426 103.94210767 -8.94515713 106.29192108 -11.44140625 108.90234375 C-14.62215302 113.18319842 -14.05371947 117.92147673 -13.83984375 123.01171875 C-14 125 -14 125 -16 127 C-19.5 127.25 -19.5 127.25 -23 127 C-23.66 126.34 -24.32 125.68 -25 125 C-24.69903201 120.86169011 -24.32101984 118.48152976 -22 115 C-21.55662701 111.18699225 -22.09743116 108.53027763 -23.5625 105.0625 C-25.17972787 100.92522287 -25.47045724 98.33397924 -24 94 C-20.63258872 89.74385305 -16.62991475 86.33790449 -12.1875 83.25 C-9.42394239 81.29925345 -7.58193108 79.96612078 -6 77 C-6.33 76.01 -6.66 75.02 -7 74 C-9.2261809 73.52000046 -9.2261809 73.52000046 -12 74 C-14.33548273 75.8327255 -16.35113393 77.60601432 -18.4375 79.6875 C-19.53902414 80.75529078 -20.64188085 81.82170868 -21.74609375 82.88671875 C-22.28282715 83.41088379 -22.81956055 83.93504883 -23.37255859 84.47509766 C-24.96439613 85.96663939 -26.61223377 87.33083761 -28.31640625 88.69140625 C-31.20501524 90.8533698 -31.20501524 90.8533698 -32.5 94.25 C-34 97 -34 97 -37 98.0625 C-40 98 -40 98 -41.875 97 C-43.58946215 93.95206728 -43.31103534 91.42138871 -43 88 C-42.01 87.01 -42.01 87.01 -41 86 C-39.845 86.144375 -38.69 86.28875 -37.5 86.4375 C-33.06715382 86.57451525 -31.09831324 84.79156288 -27.875 81.875 C-26.2310846 80.26913819 -24.60481598 78.64493638 -23 77 C-22.3503125 76.36191406 -21.700625 75.72382813 -21.03125 75.06640625 C-19.67044157 73.72806399 -18.33198221 72.36703438 -17 71 C-18.50912958 66.01987239 -21.55661849 62.75740058 -25 59 C-25.58652344 59.14953125 -26.17304687 59.2990625 -26.77734375 59.453125 C-35.09077285 61.49860844 -35.09077285 61.49860844 -37.9375 59.9375 C-39.45334601 57.17331023 -39.32954432 55.09771665 -39 52 C-37 50 -37 50 -34.4375 49.5625 C-26.54096655 50.56751335 -21.87733038 54.78528558 -16.9375 60.8125 C-15.6100628 62.53022643 -14.29223429 64.25563646 -13 66 C-9.73399652 64.85429491 -7.33661937 63.58361931 -5 61 C-3.97740343 56.32148824 -3.89658982 51.77625778 -4 47 C-4.59167969 46.87882812 -5.18335938 46.75765625 -5.79296875 46.6328125 C-12.62049567 45.18488673 -12.62049567 45.18488673 -15.4375 43.8125 C-19.611003 42.48919417 -23.72314271 43.38546128 -28 44 C-31.05188199 39.60528993 -31.05188199 39.60528993 -30.8125 36.8125 C-30 35 -30 35 -28 33 C-25.75 32.5625 -25.75 32.5625 -23 33 C-21.6405157 34.19369353 -20.28440087 35.39178838 -18.95703125 36.62109375 C-14.8572744 39.50974478 -9.77289137 40.61756059 -5 42 C-5.08706253 39.08190419 -5.19394734 36.16684289 -5.3125 33.25 C-5.34633789 32.0125 -5.34633789 32.0125 -5.38085938 30.75 C-5.59160134 25.99872666 -6.03565901 23.78291236 -9 20 C-9.84775355 13.90048509 -8.13110044 10.74626302 -4.625 6.0625 C-4.00625 5.17981445 -4.00625 5.17981445 -3.375 4.27929688 C-2.31341382 2.80506187 -1.16280512 1.39578592 0 0 Z " fill="#0F3A50" transform="translate(109,285)"/>
<path d="M0 0 C8.91 -0.12375 8.91 -0.12375 18 -0.25 C19.85882812 -0.28641602 21.71765625 -0.32283203 23.6328125 -0.36035156 C25.13019664 -0.37204988 26.62759365 -0.38223899 28.125 -0.390625 C29.26195312 -0.4213208 29.26195312 -0.4213208 30.421875 -0.45263672 C35.95593606 -0.45620248 40.46722381 0.70488097 45 4 C49.02110764 9.28703456 49.63112888 14.64504766 49.5 21.125 C49.51546875 21.89714844 49.5309375 22.66929687 49.546875 23.46484375 C49.51074985 28.76621016 48.45790216 31.78226087 45 36 C42.59097812 38.11701923 41.06867617 38.97710794 38 40 C40.08044119 44.63171907 43.25781964 48.42529017 46.3203125 52.44140625 C48 55 48 55 48 58 C43.72342129 58.92585725 40.24670943 59.16136537 36 58 C30.29307295 53.13589133 26.72852019 45.82130047 24 39 C19.71 39 15.42 39 11 39 C11 45.27 11 51.54 11 58 C7.7 58 4.4 58 1 58 C0.505 29.29 0.505 29.29 0 0 Z " fill="#06394E" transform="translate(494,309)"/>
<path d="M0 0 C1.05509766 -0.020625 2.11019531 -0.04125 3.19726562 -0.0625 C9.59065699 -0.09436737 14.41031177 0.43785889 20.1875 3.25 C23.34111867 6.64014007 24.40537779 9.0877372 24.4375 13.625 C24.355 14.82125 24.2725 16.0175 24.1875 17.25 C20.5575 17.25 16.9275 17.25 13.1875 17.25 C12.5275 15.6 11.8675 13.95 11.1875 12.25 C8.0745419 10.69352095 4.78838167 11.06553952 1.375 11.0625 C0.66279297 11.05025391 -0.04941406 11.03800781 -0.78320312 11.02539062 C-4.9142489 11.01392611 -8.10017002 11.40477508 -11.8125 13.25 C-11.8125 15.89 -11.8125 18.53 -11.8125 21.25 C-10.75933594 21.43175781 -9.70617187 21.61351562 -8.62109375 21.80078125 C-5.60315345 22.32360455 -2.58826237 22.86144199 0.42578125 23.40625 C3.43894418 23.94953704 6.45309504 24.44928793 9.48046875 24.90625 C20.46467283 26.66537141 20.46467283 26.66537141 23.5625 30.25 C27.18765687 36.9425973 27.26345532 44.48415638 25.1875 51.75 C21.79708255 55.98802182 17.2320058 57.56849807 12.1875 59.25 C8.65042428 59.5070436 5.10793121 59.4814132 1.5625 59.5 C0.60214844 59.520625 -0.35820312 59.54125 -1.34765625 59.5625 C-8.19738757 59.59967629 -15.48309518 59.33775447 -20.75 54.453125 C-23.18772458 49.97201365 -24.49281601 46.36494391 -24.8125 41.25 C-20.8525 41.25 -16.8925 41.25 -12.8125 41.25 C-12.4825 42.9 -12.1525 44.55 -11.8125 46.25 C-8.97267118 47.19660961 -7.19394671 47.37867774 -4.25 47.3828125 C-3.37085938 47.38410156 -2.49171875 47.38539063 -1.5859375 47.38671875 C-0.67070312 47.38285156 0.24453125 47.37898438 1.1875 47.375 C2.56035156 47.38080078 2.56035156 47.38080078 3.9609375 47.38671875 C4.84007812 47.38542969 5.71921875 47.38414062 6.625 47.3828125 C7.42808594 47.38168457 8.23117187 47.38055664 9.05859375 47.37939453 C11.37634465 47.3304355 11.37634465 47.3304355 14.1875 46.25 C14.1875 43.28 14.1875 40.31 14.1875 37.25 C9.28860183 35.32901473 5.04867185 34.95226679 -0.125 34.8125 C-7.51991566 34.48649868 -14.19609032 34.0318536 -20.25 29.375 C-24.72186517 23.29326337 -24.57039387 16.51847611 -23.8125 9.25 C-22.37698061 5.43137698 -20.21430979 3.5178732 -16.8125 1.25 C-11.28441608 -0.19255899 -5.67485861 0.02743134 0 0 Z " fill="#093B51" transform="translate(281.8125,308.75)"/>
<path d="M0 0 C1.05445313 -0.01611328 2.10890625 -0.03222656 3.1953125 -0.04882812 C10.48935763 -0.05339833 15.76572122 0.49287235 21.4375 5.4375 C23.68224184 9.56782499 23.27840213 12.64926434 23 17.3125 C19.7 17.3125 16.4 17.3125 13 17.3125 C12.7525 16.508125 12.505 15.70375 12.25 14.875 C11.3143308 12.22856242 11.3143308 12.22856242 9.38671875 11.66796875 C6.09907939 11.17832033 2.88602513 11.10202656 -0.4375 11.0625 C-1.73558594 11.03671875 -3.03367188 11.0109375 -4.37109375 10.984375 C-8.16755317 11.32765012 -10.06308273 11.91718155 -13 14.3125 C-13.58345476 17.35503508 -13.58345476 17.35503508 -13 20.3125 C-10.38766123 22.92483877 -8.78580515 22.79674005 -5.14453125 23.2421875 C-3.96439453 23.39816406 -2.78425781 23.55414063 -1.56835938 23.71484375 C0.91535788 24.02740723 3.39973356 24.3347867 5.88476562 24.63671875 C12.45336366 25.51443473 17.66750163 26.24137164 23 30.3125 C26.07240343 34.65686054 26.55416077 40.1403328 26 45.3125 C24.78878749 49.76185208 23.54058149 53.24536836 20 56.3125 C13.20912384 59.34449502 6.27324518 59.80623219 -1.0625 59.75 C-2.4556543 59.7799707 -2.4556543 59.7799707 -3.87695312 59.81054688 C-10.29141941 59.8060455 -15.48751477 58.70259772 -21 55.3125 C-24.1790988 51.90078422 -25.20968778 49.50084298 -25.25 44.9375 C-25.1675 43.74125 -25.085 42.545 -25 41.3125 C-21.37 41.3125 -17.74 41.3125 -14 41.3125 C-13.67 42.9625 -13.34 44.6125 -13 46.3125 C-10.57933169 47.52283415 -9.01833058 47.44172803 -6.31640625 47.4453125 C-5.38892578 47.44660156 -4.46144531 47.44789063 -3.50585938 47.44921875 C-2.04889648 47.44341797 -2.04889648 47.44341797 -0.5625 47.4375 C0.88866211 47.44330078 0.88866211 47.44330078 2.36914062 47.44921875 C3.29791016 47.44792969 4.22667969 47.44664062 5.18359375 47.4453125 C6.03493896 47.44418457 6.88628418 47.44305664 7.76342773 47.44189453 C10.171942 47.40013401 10.171942 47.40013401 13 46.3125 C13 43.3425 13 40.3725 13 37.3125 C10.70123282 36.16311641 9.08640666 36.07019105 6.52734375 35.8828125 C5.62693359 35.80933594 4.72652344 35.73585938 3.79882812 35.66015625 C1.919051 35.51388008 0.03883783 35.3730843 -1.84179688 35.23828125 C-8.8323631 34.65366976 -15.88393413 33.8053527 -21.5 29.3125 C-24.44825445 25.38149406 -24.28095074 21.21528771 -24.375 16.5 C-24.41238281 15.80068359 -24.44976562 15.10136719 -24.48828125 14.38085938 C-24.55708112 10.29491174 -24.12834846 8.52088598 -21.9140625 4.92578125 C-15.62265413 -0.71624583 -8.01216312 -0.02448705 0 0 Z " fill="#0A3B50" transform="translate(200,308.6875)"/>
<path d="M0 0 C3.96 0 7.92 0 12 0 C18.68265486 13.78297564 24.33373796 27.92847276 29.75 42.25 C31.11082264 45.83426845 32.56633787 49.27427019 34.3125 52.6875 C36 56 36 56 36 58 C32.37 58 28.74 58 25 58 C24.16209211 56.21046815 23.32980604 54.41830305 22.5 52.625 C22.0359375 51.62726563 21.571875 50.62953125 21.09375 49.6015625 C20 47 20 47 20 45 C10.76 45 1.52 45 -8 45 C-8.33 46.98 -8.66 48.96 -9 51 C-9.86173773 53.42000959 -10.92410684 55.66110182 -12 58 C-15.96 58 -19.92 58 -24 58 C-21.68473528 49.48632484 -18.36824338 41.5512775 -14.8125 33.5 C-14.2297683 32.1693078 -13.64749613 30.83841428 -13.06567383 29.50732422 C-11.38519267 25.66795813 -9.69382373 21.83349893 -8 18 C-7.31309082 16.44394043 -7.31309082 16.44394043 -6.61230469 14.85644531 C-4.42116255 9.89844918 -2.21828709 4.94590899 0 0 Z " fill="#0F3C4F" transform="translate(451,309)"/>
<path d="M0 0 C3.96 0 7.92 0 12 0 C12 7.92 12 15.84 12 24 C21.9 24 31.8 24 42 24 C41.505 23.01 41.505 23.01 41 22 C40.91573906 20.3325394 40.89274857 18.66174813 40.90234375 16.9921875 C40.90556641 16.00605469 40.90878906 15.01992188 40.91210938 14.00390625 C40.92467773 12.45509766 40.92467773 12.45509766 40.9375 10.875 C40.94201172 9.83472656 40.94652344 8.79445313 40.95117188 7.72265625 C40.96298033 5.14841313 40.98091615 2.57419947 41 0 C44.96 0 48.92 0 53 0 C53.33 19.14 53.66 38.28 54 58 C50.04 58 46.08 58 42 58 C42 49.75 42 41.5 42 33 C31.77 33 21.54 33 11 33 C11 41.25 11 49.5 11 58 C7.37 58 3.74 58 0 58 C0 38.86 0 19.72 0 0 Z " fill="#0A3B4F" transform="translate(318,309)"/>
<path d="M0 0 C3.96 0 7.92 0 12 0 C12 7.92 12 15.84 12 24 C21.9 24 31.8 24 42 24 C41.505 23.01 41.505 23.01 41 22 C40.91573906 20.3325394 40.89274857 18.66174813 40.90234375 16.9921875 C40.90556641 16.00605469 40.90878906 15.01992188 40.91210938 14.00390625 C40.92467773 12.45509766 40.92467773 12.45509766 40.9375 10.875 C40.94201172 9.83472656 40.94652344 8.79445313 40.95117188 7.72265625 C40.96298033 5.14841313 40.98091615 2.57419947 41 0 C44.96 0 48.92 0 53 0 C53 19.14 53 38.28 53 58 C49.7 58 46.4 58 43 58 C43 49.75 43 41.5 43 33 C32.44 33 21.88 33 11 33 C11 40.92 11 48.84 11 57 C7.37 57 3.74 57 0 57 C0 38.19 0 19.38 0 0 Z " fill="#0D3A4C" transform="translate(605,309)"/>
<path d="M0 0 C4.97754466 4.18566255 9.79406333 8.5280561 14.55957031 12.95239258 C17.95171003 16.08804523 21.4324758 19.0685871 25 22 C25 21.01 25 20.02 25 19 C25.90363281 18.97421875 26.80726563 18.9484375 27.73828125 18.921875 C28.91777344 18.86515625 30.09726563 18.8084375 31.3125 18.75 C33.07013672 18.68039062 33.07013672 18.68039062 34.86328125 18.609375 C38.08859651 18.31987425 38.08859651 18.31987425 39.73046875 15.98046875 C40.14941406 15.32691406 40.56835938 14.67335938 41 14 C44.1506804 13.54052577 46.07837528 13.47774599 48.875 15.0625 C50.64273274 18.1069286 50.36823916 20.5631012 50 24 C48.8125 25.9375 48.8125 25.9375 47 27 C44.5 27.375 44.5 27.375 42 27 C41.56042969 26.51144531 41.12085938 26.02289063 40.66796875 25.51953125 C38.42225389 23.47366924 36.80689162 23.50694101 33.8125 23.3125 C32.91144531 23.24675781 32.01039063 23.18101562 31.08203125 23.11328125 C30.39496094 23.07589844 29.70789063 23.03851563 29 23 C28.76495398 24.94752418 28.5311031 26.89520361 28.3046875 28.84375 C28 31 28 31 27.1875 34.125 C26.92736122 38.11379458 28.77870715 39.76902858 31 43 C31.45417493 46.30898877 31.56579542 48.0768601 29.8125 50.9375 C28 52 28 52 25.5 51.9375 C22.457772 50.7966645 21.635261 49.77410349 20 47 C20.09375 44.80859375 20.09375 44.80859375 20.5 42.4375 C20.66408709 38.48768932 20.15934705 37.20758476 17.703125 34.0078125 C13.77615193 29.9319083 9.53023588 26.39767691 5 23 C4.67 33.23 4.34 43.46 4 54 C5.485 54.495 5.485 54.495 7 55 C8.5121867 58.02437339 8.17263369 60.66241534 8 64 C7 66.4375 7 66.4375 6 68 C3.66705225 68.04241723 1.33297433 68.04092937 -1 68 C-2 67 -2 67 -2.1328125 64.3125 C-2.13023438 63.219375 -2.12765625 62.12625 -2.125 61 C-2.12757812 59.906875 -2.13015625 58.81375 -2.1328125 57.6875 C-2 55 -2 55 -1 54 C-0.84028023 51.62661361 -0.7407567 49.27881728 -0.68359375 46.90234375 C-0.66281265 46.19348526 -0.64203156 45.48462677 -0.62062073 44.75428772 C-0.55505402 42.48212695 -0.4962077 40.20984736 -0.4375 37.9375 C-0.39432151 36.40037817 -0.35070745 34.8632685 -0.30664062 33.32617188 C-0.19936551 29.5509041 -0.09811863 25.7755164 0 22 C-0.66 22 -1.32 22 -2 22 C-2.38478516 22.86818359 -2.38478516 22.86818359 -2.77734375 23.75390625 C-4.51283426 26.94210767 -6.94515713 29.29192108 -9.44140625 31.90234375 C-11.23042507 34.31012096 -11.6054004 36.0549396 -12 39 C-12.32483418 40.33542939 -12.6550855 41.66961551 -13 43 C-13 42.01 -13 41.02 -13 40 C-13.66 40 -14.32 40 -15 40 C-15 41.98 -15 43.96 -15 46 C-16.98 46.495 -16.98 46.495 -19 47 C-18.75 44.125 -18.75 44.125 -18 41 C-15.9375 39.625 -15.9375 39.625 -14 39 C-14 37.68 -14 36.36 -14 35 C-14.66 34.67 -15.32 34.34 -16 34 C-15.505 33.505 -15.505 33.505 -15 33 C-15.66 32.67 -16.32 32.34 -17 32 C-18.38982762 27.56611092 -18.7197851 23.58863003 -18 19 C-14.69302 14.1888034 -10.3126522 9.11699347 -4.63671875 7.203125 C-4.09660156 7.13609375 -3.55648437 7.0690625 -3 7 C-2.67 8.65 -2.34 10.3 -2 12 C-1.01 12 -0.02 12 1 12 C1.020625 10.7625 1.04125 9.525 1.0625 8.25 C1.07410156 7.55390625 1.08570312 6.8578125 1.09765625 6.140625 C0.99849799 3.96707597 0.59693851 2.08693463 0 0 Z " fill="#09283B" transform="translate(107,362)"/>
<path d="M0 0 C0.66 0 1.32 0 2 0 C3.83590522 2.19181576 5.52042043 4.37301089 7.1875 6.6875 C7.66380859 7.31333984 8.14011719 7.93917969 8.63085938 8.58398438 C12.01149124 13.25620352 12.01149124 13.25620352 11.95703125 16.78125 C11 19 11 19 8.5 21.8125 C4.19006463 27.3520711 5.08844502 35.30229993 5 42 C11.27796009 39.87582557 11.27796009 39.87582557 15.625 35.25 C16.07875 34.5075 16.5325 33.765 17 33 C20.5625 32.5625 20.5625 32.5625 24 33 C24.66 33.66 25.32 34.32 26 35 C25.625 37.625 25.625 37.625 25 40 C24.505 38.02 24.505 38.02 24 36 C22.02 36.495 22.02 36.495 20 37 C20 38.65 20 40.3 20 42 C21.65 42.33 23.3 42.66 25 43 C25 53.23 25 63.46 25 74 C25.66 74 26.32 74 27 74 C27 73.34 27 72.68 27 72 C27.66 72 28.32 72 29 72 C29.226875 71.46375 29.45375 70.9275 29.6875 70.375 C31 68 31 68 33.5 65.1875 C36.20071452 62.0828663 36.98584127 58.97862273 38 55 C40.76250036 53.61874982 42.94731099 53.80920694 46 54 C48 56 48 56 48.25 59.5 C48 63 48 63 46 65 C44.89398438 65.10054688 43.78796875 65.20109375 42.6484375 65.3046875 C38.10590832 66.17039435 37.25875435 67.42159828 34.625 71.125 C30.67683239 76.31924452 26.57262046 80.54803849 21 84 C20.34 84 19.68 84 19 84 C18.87757443 70.62359426 19.07726164 57.34675129 20 44 C16.2020823 43.86997143 13.30942892 43.99234202 9.8125 45.5 C7.18737317 46.61839723 5.93854365 47 3 47 C3 49.64 3 52.28 3 55 C2.01 54.505 2.01 54.505 1 54 C1 41.46 1 28.92 1 16 C1.99 15.67 2.98 15.34 4 15 C4.99 15.99 5.98 16.98 7 18 C5.02 14.535 5.02 14.535 3 11 C1.68 11 0.36 11 -1 11 C-2.77409808 12.92022703 -2.77409808 12.92022703 -4 15 C-3.01 15 -2.02 15 -1 15 C-0.97517831 20.42602205 -0.9570825 25.85201062 -0.94506836 31.27807617 C-0.94005684 33.12183203 -0.93324585 34.96558396 -0.92456055 36.80932617 C-0.91235516 39.46794612 -0.90673975 42.12651327 -0.90234375 44.78515625 C-0.89718246 45.60210464 -0.89202118 46.41905304 -0.88670349 47.26075745 C-0.88624971 51.9485648 -1.21898803 56.37608487 -2 61 C-2.66 61 -3.32 61 -4 61 C-4 56.38 -4 51.76 -4 47 C-6.0728125 46.566875 -6.0728125 46.566875 -8.1875 46.125 C-10.84688245 45.55100286 -12.98364963 45.00796556 -15.4375 43.8125 C-19.611003 42.48919417 -23.72314271 43.38546128 -28 44 C-31.05188199 39.60528993 -31.05188199 39.60528993 -30.8125 36.8125 C-30 35 -30 35 -28 33 C-25.75 32.5625 -25.75 32.5625 -23 33 C-21.6405157 34.19369353 -20.28440087 35.39178838 -18.95703125 36.62109375 C-14.8572744 39.50974478 -9.77289137 40.61756059 -5 42 C-5.08706253 39.08190419 -5.19394734 36.16684289 -5.3125 33.25 C-5.33505859 32.425 -5.35761719 31.6 -5.38085938 30.75 C-5.59160134 25.99872666 -6.03565901 23.78291236 -9 20 C-9.84775355 13.90048509 -8.13110044 10.74626302 -4.625 6.0625 C-4.2125 5.47404297 -3.8 4.88558594 -3.375 4.27929688 C-2.31341382 2.80506187 -1.16280512 1.39578592 0 0 Z " fill="#142F42" transform="translate(109,285)"/>
<path d="M0 0 C4.14412615 -0.60351352 7.87531205 -0.8228142 12 0 C14.97832816 2.78617796 16.28241594 6.34736 18 10 C19.57240273 12.69918804 21.22696785 15.3464863 22.875 18 C27 24.68850387 27 24.68850387 27 27 C27.66 27 28.32 27 29 27 C29.25007813 26.15308594 29.50015625 25.30617188 29.7578125 24.43359375 C31.10029818 20.7227607 32.87407319 17.44324808 34.875 14.0625 C35.21402344 13.48048828 35.55304688 12.89847656 35.90234375 12.29882812 C36.5836427 11.12922176 37.266892 9.96074916 37.95214844 8.79345703 C39.65724163 5.87509389 41.32711717 2.9369221 43 0 C47.29 0 51.58 0 56 0 C54.45764337 3.08471325 52.86203464 6.0271646 51.125 9 C50.21234375 10.59714844 50.21234375 10.59714844 49.28125 12.2265625 C47.6131491 15.06754685 45.79381509 17.76130709 43.90625 20.4609375 C35.37799698 33.03343808 33.25244921 42.87647258 34 58 C30.04 58 26.08 58 22 58 C22.09023438 56.67871094 22.18046875 55.35742188 22.2734375 53.99609375 C22.77008724 38.22673829 17.77244901 28.44377035 8.87402344 15.70166016 C6.87350468 12.81763976 4.94329441 9.89766045 3.0390625 6.94921875 C2.45592285 6.04905029 1.8727832 5.14888184 1.27197266 4.22143555 C0 2 0 2 0 0 Z " fill="#0F3C4F" transform="translate(379,309)"/>
<path d="M0 0 C16.5 0 33 0 50 0 C50 3.3 50 6.6 50 10 C43.4 10 36.8 10 30 10 C30 25.51 30 41.02 30 57 C26.37 57 22.74 57 19 57 C19 41.82 19 26.64 19 11 C13.06 11 7.12 11 1 11 C0.67 10.67 0.34 10.34 0 10 C0 6.7 0 3.4 0 0 Z " fill="#023A52" transform="translate(549,309)"/>
<path d="M0 0 C3.96 0 7.92 0 12 0 C12 7.92 12 15.84 12 24 C22.23 24 32.46 24 43 24 C39 26 39 26 35.8125 26.5 C34.4203125 26.7475 34.4203125 26.7475 33 27 C32.67 27.66 32.34 28.32 32 29 C30.1015625 29.4140625 30.1015625 29.4140625 27.625 29.625 C26.83351563 29.69976562 26.04203125 29.77453125 25.2265625 29.8515625 C20.48912749 30.06950745 15.74244562 30 11 30 C11 39.24 11 48.48 11 58 C7.37 58 3.74 58 0 58 C0 38.86 0 19.72 0 0 Z " fill="#0C3A4E" transform="translate(318,309)"/>
<path d="M0 0 C3.63 0 7.26 0 11 0 C11 18.81 11 37.62 11 57 C7.37 57 3.74 57 0 57 C0 38.19 0 19.38 0 0 Z " fill="#0D3B4F" transform="translate(670,309)"/>
<path d="M0 0 C3.63 0 7.26 0 11 0 C11 19.14 11 38.28 11 58 C7.7 58 4.4 58 1 58 C-0.19388403 18.16047091 -0.19388403 18.16047091 0 0 Z " fill="#063D54" transform="translate(235,309)"/>
<path d="M0 0 C3.73037847 -0.1350499 7.45586412 -0.23415132 11.1875 -0.3125 C12.24259766 -0.35439453 13.29769531 -0.39628906 14.38476562 -0.43945312 C22.14886368 -0.56191524 22.14886368 -0.56191524 26.21875 2.125 C28.32116199 5.51836671 28.52983078 7.35707988 28.3125 11.3125 C28.24482422 12.91544922 28.24482422 12.91544922 28.17578125 14.55078125 C28.11777344 15.35902344 28.05976562 16.16726563 28 17 C22.37101513 20.65980074 17.19011331 20.35268672 10.625 20.1875 C9.09166016 20.16719727 9.09166016 20.16719727 7.52734375 20.14648438 C5.01800067 20.11130667 2.50893071 20.0575052 0 20 C0 13.4 0 6.8 0 0 Z " fill="#F3F2F3" transform="translate(505,319)"/>
<path d="M0 0 C2.64 0 5.28 0 8 0 C8.02505615 0.6612085 8.0501123 1.32241699 8.07592773 2.00366211 C8.19153102 4.98182305 8.31441754 7.9596392 8.4375 10.9375 C8.47681641 11.97841797 8.51613281 13.01933594 8.55664062 14.09179688 C8.61948242 15.57583008 8.61948242 15.57583008 8.68359375 17.08984375 C8.72025146 18.00628662 8.75690918 18.92272949 8.79467773 19.86694336 C8.77003864 21.9820728 8.77003864 21.9820728 10 23 C12.0708472 23.1584265 14.14678029 23.25124422 16.22265625 23.31640625 C18.11274414 23.37924805 18.11274414 23.37924805 20.04101562 23.44335938 C21.38150736 23.48317596 22.7220022 23.52288814 24.0625 23.5625 C25.40691523 23.60568042 26.7513166 23.64929456 28.09570312 23.69335938 C31.3970234 23.79985358 34.69842236 23.9018646 38 24 C38 24.33 38 24.66 38 25 C31.73 25 25.46 25 19 25 C19.33 25.66 19.66 26.32 20 27 C26.6 27.33 33.2 27.66 40 28 C40 28.33 40 28.66 40 29 C24.655 29.495 24.655 29.495 9 30 C8.67 37.92 8.34 45.84 8 54 C5.36 54 2.72 54 0 54 C0 36.18 0 18.36 0 0 Z " fill="#013C53" transform="translate(607,311)"/>
<path d="M0 0 C3.35541938 -0.47873499 5.9158612 -0.78627865 8.76123047 1.27734375 C10.58127658 3.11773432 12.26809475 5.02193778 13.9375 7 C15.15482268 8.38276827 16.37356413 9.76428887 17.59375 11.14453125 C18.17511719 11.81178223 18.75648437 12.4790332 19.35546875 13.16650391 C21.99434278 16.10859773 24.89489858 18.75622358 27.83984375 21.38671875 C29 23 29 23 28.69140625 25.20703125 C28.46324219 25.79871094 28.23507813 26.39039063 28 27 C24.28731906 25.45872649 22.01884302 23.19156766 19.25 20.3125 C12.29965984 12.80614029 12.29965984 12.80614029 4 7 C4.33 7.66 4.66 8.32 5 9 C5.23076923 14.53846154 5.23076923 14.53846154 4 17 C3.01 17 2.02 17 1 17 C0.67 15.35 0.34 13.7 0 12 C-2.09645123 13.25787074 -4.03244082 14.55520236 -6 16 C-6.71929687 16.52464844 -7.43859375 17.04929687 -8.1796875 17.58984375 C-11.80669294 20.64246577 -13.79248756 22.60647414 -14.5078125 27.41015625 C-14.50077363 30.64451581 -14.35274265 33.7861225 -14 37 C-13.01 37.33 -12.02 37.66 -11 38 C-11 44 -11 44 -12.9375 46 C-13.618125 46.66 -14.29875 47.32 -15 48 C-15.7872678 50.1381966 -15.7872678 50.1381966 -16 52 C-14.515 51.505 -14.515 51.505 -13 51 C-12.505 48.03 -12.505 48.03 -12 45 C-11.34 45 -10.68 45 -10 45 C-9.0234375 51.0546875 -9.0234375 51.0546875 -9 53 C-11 55 -11 55 -14.5 55.25 C-18 55 -18 55 -20 53 C-19.69903201 48.86169011 -19.32101984 46.48152976 -17 43 C-16.55662701 39.18699225 -17.09743116 36.53027763 -18.5625 33.0625 C-20.17972787 28.92522287 -20.47045724 26.33397924 -19 22 C-15.63258872 17.74385305 -11.62991475 14.33790449 -7.1875 11.25 C-3.35459011 8.54441655 -1.45162884 6.80651536 -0.3125 2.25 C-0.209375 1.5075 -0.10625 0.765 0 0 Z " fill="#1A2E3D" transform="translate(104,357)"/>
<path d="M0 0 C4.97754466 4.18566255 9.79406333 8.5280561 14.55957031 12.95239258 C17.95171003 16.08804523 21.4324758 19.0685871 25 22 C24.34 25.63 23.68 29.26 23 33 C22.28328125 32.28199219 21.5665625 31.56398438 20.828125 30.82421875 C19.01045222 29.00905657 17.18792443 27.19873609 15.359375 25.39453125 C14.49828125 24.54246094 13.6371875 23.69039063 12.75 22.8125 C11.87859375 21.95269531 11.0071875 21.09289062 10.109375 20.20703125 C8 18 8 18 7 16 C4.50638429 17.20381448 2.31856917 18.45428722 0 20 C-1.0725 20.185625 -2.145 20.37125 -3.25 20.5625 C-7.91605495 21.74139711 -9.90273375 25.30511029 -12.51953125 29.1015625 C-13.00808594 29.72804688 -13.49664062 30.35453125 -14 31 C-14.66 31 -15.32 31 -16 31 C-17.59648328 26.80923138 -18.55503981 23.47917124 -18 19 C-16.29128085 16.7698269 -14.77672504 15.06724879 -12.75 13.1875 C-12.25886719 12.69830078 -11.76773438 12.20910156 -11.26171875 11.70507812 C-8.67452224 9.21102069 -6.64896733 7.39096079 -3 7 C-2.67 8.65 -2.34 10.3 -2 12 C-1.01 12 -0.02 12 1 12 C1.020625 10.7625 1.04125 9.525 1.0625 8.25 C1.07410156 7.55390625 1.08570312 6.8578125 1.09765625 6.140625 C0.99849799 3.96707597 0.59693851 2.08693463 0 0 Z " fill="#F4F3F2" transform="translate(107,362)"/>
<path d="M0 0 C3.4375 0.4375 3.4375 0.4375 5.4375 2.4375 C5.0625 5.0625 5.0625 5.0625 4.4375 7.4375 C4.1075 6.1175 3.7775 4.7975 3.4375 3.4375 C2.1175 3.7675 0.7975 4.0975 -0.5625 4.4375 C-0.5625 6.0875 -0.5625 7.7375 -0.5625 9.4375 C1.0875 9.7675 2.7375 10.0975 4.4375 10.4375 C4.4375 20.6675 4.4375 30.8975 4.4375 41.4375 C5.0975 41.4375 5.7575 41.4375 6.4375 41.4375 C6.4375 40.7775 6.4375 40.1175 6.4375 39.4375 C7.0975 39.4375 7.7575 39.4375 8.4375 39.4375 C8.664375 38.90125 8.89125 38.365 9.125 37.8125 C10.4375 35.4375 10.4375 35.4375 12.9375 32.625 C15.63821452 29.5203663 16.42334127 26.41612273 17.4375 22.4375 C20.20000036 21.05624982 22.38481099 21.24670694 25.4375 21.4375 C27.4375 23.4375 27.4375 23.4375 27.6875 26.9375 C27.4375 30.4375 27.4375 30.4375 25.4375 32.4375 C23.77847656 32.58832031 23.77847656 32.58832031 22.0859375 32.7421875 C17.54340832 33.60789435 16.69625435 34.85909828 14.0625 38.5625 C10.11433239 43.75674452 6.01012046 47.98553849 0.4375 51.4375 C-0.2225 51.4375 -0.8825 51.4375 -1.5625 51.4375 C-1.68492557 38.06109426 -1.48523836 24.78425129 -0.5625 11.4375 C-1.19285156 11.14488281 -1.82320313 10.85226562 -2.47265625 10.55078125 C-4.5625 9.4375 -4.5625 9.4375 -6 7.625 C-6.5625 5.4375 -6.5625 5.4375 -5.625 2.6875 C-3.5625 0.4375 -3.5625 0.4375 0 0 Z " fill="#1E323E" transform="translate(129.5625,317.5625)"/>
<path d="M0 0 C16.5 0 33 0 50 0 C50 3.3 50 6.6 50 10 C43.4 10 36.8 10 30 10 C30 25.51 30 41.02 30 57 C26.37 57 22.74 57 19 57 C19 41.82 19 26.64 19 11 C13.06 11 7.12 11 1 11 C0.67 10.67 0.34 10.34 0 10 C0 6.7 0 3.4 0 0 Z M3 2 C3 4.31 3 6.62 3 9 C8.94 9 14.88 9 21 9 C20.835 11.743125 20.67 14.48625 20.5 17.3125 C19.79440328 30.20206263 19.90524564 43.09591454 20 56 C22.97 56 25.94 56 29 56 C29 40.49 29 24.98 29 9 C35.27 9 41.54 9 48 9 C48 6.69 48 4.38 48 2 C33.15 2 18.3 2 3 2 Z " fill="#324552" transform="translate(549,309)"/>
<path d="M0 0 C3.35435922 1.38801071 5.11290303 2.88629 7 6 C7 6.99 7 7.98 7 9 C6.01 8.67 5.02 8.34 4 8 C4 7.34 4 6.68 4 6 C3.01 6.495 3.01 6.495 2 7 C2 19.54 2 32.08 2 45 C2.33 42.69 2.66 40.38 3 38 C3.33 38 3.66 38 4 38 C4 40.64 4 43.28 4 46 C5.175625 46.185625 5.175625 46.185625 6.375 46.375 C9 47 9 47 11 49 C10.9765625 52.0390625 10.9765625 52.0390625 10.625 55.625 C10.45871094 57.40777344 10.45871094 57.40777344 10.2890625 59.2265625 C10.19367188 60.14179688 10.09828125 61.05703125 10 62 C8.234375 62.68359375 8.234375 62.68359375 6 63 C4.078125 61.78515625 4.078125 61.78515625 2.25 60.0625 C1.63640625 59.49660156 1.0228125 58.93070312 0.390625 58.34765625 C-0.29773438 57.68056641 -0.29773438 57.68056641 -1 57 C-0.67 55.68 -0.34 54.36 0 53 C-1.32 53.66 -2.64 54.32 -4 55 C-3.67257813 53.75476563 -3.34515625 52.50953125 -3.0078125 51.2265625 C-1.30623085 42.71865424 -1.79020783 34.00940277 -1.875 25.375 C-1.88504897 23.58984877 -1.89417143 21.80469206 -1.90234375 20.01953125 C-1.9242075 15.67955069 -1.95863185 11.33983668 -2 7 C-2.99 6.67 -3.98 6.34 -5 6 C-3.35 4.02 -1.7 2.04 0 0 Z " fill="#284455" transform="translate(109,294)"/>
<path d="M0 0 C3.1506804 -0.45947423 5.07837528 -0.52225401 7.875 1.0625 C9.64273274 4.1069286 9.36823916 6.5631012 9 10 C7.8125 11.9375 7.8125 11.9375 6 13 C3.5 13.375 3.5 13.375 1 13 C0.56042969 12.51144531 0.12085938 12.02289063 -0.33203125 11.51953125 C-2.57774611 9.47366924 -4.19310838 9.50694101 -7.1875 9.3125 C-8.08855469 9.24675781 -8.98960937 9.18101562 -9.91796875 9.11328125 C-10.60503906 9.07589844 -11.29210937 9.03851563 -12 9 C-12.23504602 10.94752418 -12.4688969 12.89520361 -12.6953125 14.84375 C-13 17 -13 17 -13.8125 20.125 C-14.31152618 23.20978672 -14.31152618 23.20978672 -11.9375 26 C-11.298125 26.99 -10.65875 27.98 -10 29 C-10.75 32.375 -10.75 32.375 -12 35 C-16.875 34.125 -16.875 34.125 -18 33 C-18.28393978 30.48510484 -18.4481124 27.97010418 -18.62109375 25.4453125 C-18.8632494 22.74931222 -18.8632494 22.74931222 -21 20 C-19.68 20 -18.36 20 -17 20 C-17.01160156 19.41992188 -17.02320313 18.83984375 -17.03515625 18.2421875 C-17.04417969 17.46101563 -17.05320313 16.67984375 -17.0625 15.875 C-17.07410156 15.10929687 -17.08570313 14.34359375 -17.09765625 13.5546875 C-16.98623099 10.63980266 -16.52754849 7.86620835 -16 5 C-15.09636719 4.97421875 -14.19273437 4.9484375 -13.26171875 4.921875 C-12.08222656 4.86515625 -10.90273437 4.8084375 -9.6875 4.75 C-7.92986328 4.68039062 -7.92986328 4.68039062 -6.13671875 4.609375 C-2.91140349 4.31987425 -2.91140349 4.31987425 -1.26953125 1.98046875 C-0.85058594 1.32691406 -0.43164062 0.67335938 0 0 Z " fill="#153447" transform="translate(148,376)"/>
<path d="M0 0 C10 0 10 0 14 2 C13.979375 3.134375 13.95875 4.26875 13.9375 5.4375 C13.58422523 8.81575674 13.58422523 8.81575674 15 10 C15.37086093 15.8410596 15.37086093 15.8410596 15 18 C10.25368713 21.16420858 5.63243123 20.12112755 0 20 C0 13.4 0 6.8 0 0 Z " fill="#363B46" transform="translate(362,384)"/>
<path d="M0 0 C0.66 0 1.32 0 2 0 C3.50884213 3.43368594 5.00553401 6.87253549 6.5 10.3125 C6.92925781 11.28896484 7.35851562 12.26542969 7.80078125 13.27148438 C8.40986328 14.67817383 8.40986328 14.67817383 9.03125 16.11328125 C9.40830078 16.97735596 9.78535156 17.84143066 10.17382812 18.73168945 C11 21 11 21 11 24 C4.73 24 -1.54 24 -8 24 C-7.23153421 18.62073945 -6.79623892 15.9911458 -4.5625 11.4375 C-2.76937745 7.67505211 -1.19089083 4.00572371 0 0 Z " fill="#F3F2F2" transform="translate(456,322)"/>
<path d="M0 0 C3.34321955 1.11440652 4.06019619 1.97472343 6.25 4.625 C9.64121152 8.63082341 13.23933198 12.3422074 17 16 C17.66 15.34 18.32 14.68 19 14 C19 15.65 19 17.3 19 19 C18.01 19.33 17.02 19.66 16 20 C16.66 20.66 17.32 21.32 18 22 C18.4140625 24.3828125 18.4140625 24.3828125 18.625 27.125 C18.69976562 28.03507812 18.77453125 28.94515625 18.8515625 29.8828125 C18.90054688 30.58148438 18.94953125 31.28015625 19 32 C20.65 32.66 22.3 33.32 24 34 C24 32.35 24 30.7 24 29 C24.66 29.33 25.32 29.66 26 30 C25.25 34.75 25.25 34.75 23 37 C19.90979946 36.84152818 18.46748779 36.48908076 16.30859375 34.23046875 C14.71115875 31.50767656 14.97703951 30.48977904 15.5 27.4375 C15.66408709 23.48768932 15.15934705 22.20758476 12.703125 19.0078125 C8.77615193 14.9319083 4.53023588 11.39767691 0 8 C-0.33 17.9 -0.66 27.8 -1 38 C-1.33 38 -1.66 38 -2 38 C-2.02468857 33.4793335 -2.04285449 28.9587061 -2.05493164 24.43798828 C-2.05996552 22.89956987 -2.06679308 21.36115625 -2.07543945 19.82275391 C-2.08754639 17.61359474 -2.09323769 15.40449874 -2.09765625 13.1953125 C-2.10281754 12.50567413 -2.10797882 11.81603577 -2.11329651 11.10549927 C-2.11387171 6.22774341 -2.11387171 6.22774341 -1 4 C-1.66 3.67 -2.32 3.34 -3 3 C-2.01 2.01 -1.02 1.02 0 0 Z " fill="#36474F" transform="translate(112,377)"/>
<path d="M0 0 C4.29 0 8.58 0 13 0 C13 0.66 13 1.32 13 2 C13.66 2 14.32 2 15 2 C15.125 5.375 15.125 5.375 15 9 C14.34 9.66 13.68 10.32 13 11 C12.97624074 12.9931567 12.97624074 12.9931567 13.375 15.125 C13.58125 16.40375 13.7875 17.6825 14 19 C11.00675737 17.9024777 10.15389099 17.32317108 8.75 14.375 C8.5025 13.59125 8.255 12.8075 8 12 C6.35 12 4.7 12 3 12 C3 14.31 3 16.62 3 19 C2.01 19 1.02 19 0 19 C0 12.73 0 6.46 0 0 Z " fill="#3C434D" transform="translate(543,385)"/>
<path d="M0 0 C0.33 0 0.66 0 1 0 C1.33 6.27 1.66 12.54 2 19 C-2.45728641 20.1143216 -3.12944222 19.77062619 -7.125 18 C-12.7744206 15.7797701 -17.10913412 15.82438251 -23 17 C-26.05188199 12.60528993 -26.05188199 12.60528993 -25.8125 9.8125 C-25 8 -25 8 -23 6 C-20.75 5.5625 -20.75 5.5625 -18 6 C-16.6405157 7.19369353 -15.28440087 8.39178838 -13.95703125 9.62109375 C-9.8448907 12.51847022 -4.76322247 13.57103326 0 15 C0 10.05 0 5.1 0 0 Z " fill="#2A4051" transform="translate(104,312)"/>
<path d="M0 0 C1.32 0 2.64 0 4 0 C4 9.9 4 19.8 4 30 C4.66 30 5.32 30 6 30 C6 30.99 6 31.98 6 33 C5.01 33.66 4.02 34.32 3 35 C1.80767387 37.05003955 1.80767387 37.05003955 1 39 C0.34 39 -0.32 39 -1 39 C-1.1183055 25.95545355 -0.96639442 13.01181059 0 0 Z " fill="#102A3B" transform="translate(129,330)"/>
<path d="M0 0 C12.21 0 24.42 0 37 0 C37 0.66 37 1.32 37 2 C25.45 2 13.9 2 2 2 C2 19.82 2 37.64 2 56 C4.64 56 7.28 56 10 56 C10 50.06 10 44.12 10 38 C10.33 38 10.66 38 11 38 C11 44.6 11 51.2 11 58 C7.7 58 4.4 58 1 58 C0.505 29.29 0.505 29.29 0 0 Z " fill="#223849" transform="translate(494,309)"/>
<path d="M0 0 C8.3984375 -0.1953125 8.3984375 -0.1953125 11 0 C13 2 13 2 13.265625 3.875 C13.26046875 4.57625 13.2553125 5.2775 13.25 6 C13.25515625 6.70125 13.2603125 7.4025 13.265625 8.125 C13 10 13 10 11 12 C8.8359375 12.1953125 8.8359375 12.1953125 6.375 12.125 C5.55773437 12.10695313 4.74046875 12.08890625 3.8984375 12.0703125 C3.27195312 12.04710937 2.64546875 12.02390625 2 12 C2 14.31 2 16.62 2 19 C1.34 19 0.68 19 0 19 C0 12.73 0 6.46 0 0 Z " fill="#13171E" transform="translate(288,385)"/>
<path d="M0 0 C3 1 3 1 4.82421875 4.4921875 C5.45645873 5.94833599 6.07711137 7.40955756 6.6875 8.875 C7.00783203 9.60847656 7.32816406 10.34195312 7.65820312 11.09765625 C10 16.58015725 10 16.58015725 10 20 C9.01 20 8.02 20 7 20 C6.67 18.68 6.34 17.36 6 16 C2.7 15.67 -0.6 15.34 -4 15 C-4.33 16.32 -4.66 17.64 -5 19 C-5.99 19.33 -6.98 19.66 -8 20 C-7.3316356 15.62221316 -5.77089558 11.77628147 -4 7.75 C-3.72671875 7.11320312 -3.4534375 6.47640625 -3.171875 5.8203125 C-1.14074248 1.14074248 -1.14074248 1.14074248 0 0 Z " fill="#3F3F45" transform="translate(506,384)"/>
<path d="M0 0 C0.99 0 1.98 0 3 0 C4.33934716 2.95564708 5.67044247 5.9149378 7 8.875 C7.3815625 9.71675781 7.763125 10.55851562 8.15625 11.42578125 C8.5171875 12.23144531 8.878125 13.03710938 9.25 13.8671875 C9.58515625 14.61081543 9.9203125 15.35444336 10.265625 16.12060547 C11 18 11 18 11 20 C9.68 19.67 8.36 19.34 7 19 C7 17.68 7 16.36 7 15 C3.37 15 -0.26 15 -4 15 C-4.33 16.32 -4.66 17.64 -5 19 C-5.66 19.33 -6.32 19.66 -7 20 C-6.47493172 14.78254934 -5.2201441 10.77348889 -2.9375 6.0625 C-2.38964844 4.91910156 -1.84179688 3.77570313 -1.27734375 2.59765625 C-0.85582031 1.74042969 -0.43429687 0.88320313 0 0 Z " fill="#272930" transform="translate(527,384)"/>
<path d="M0 0 C3 1 3 1 4.5703125 3.73046875 C5.08335937 4.87128906 5.59640625 6.01210938 6.125 7.1875 C6.64320313 8.31542969 7.16140625 9.44335938 7.6953125 10.60546875 C8.91736493 13.78500036 9.58077275 16.6308444 10 20 C9.01 19.67 8.02 19.34 7 19 C6.67 18.01 6.34 17.02 6 16 C2.7 15.67 -0.6 15.34 -4 15 C-4.33 16.65 -4.66 18.3 -5 20 C-5.99 20 -6.98 20 -8 20 C-6.12849037 12.84870304 -3.50213658 6.50594543 0 0 Z " fill="#242731" transform="translate(346,384)"/>
<path d="M0 0 C1.8359375 0.11328125 1.8359375 0.11328125 4 1 C5.4140625 3.73046875 5.4140625 3.73046875 6.625 7.1875 C7.02976562 8.31542969 7.43453125 9.44335938 7.8515625 10.60546875 C8.91003211 13.7340745 9.96270071 16.86431086 11 20 C10.01 20 9.02 20 8 20 C7.34 18.68 6.68 17.36 6 16 C4.54257537 15.91903197 3.08387193 15.86082226 1.625 15.8125 C0.40683594 15.76029297 0.40683594 15.76029297 -0.8359375 15.70703125 C-1.55007813 15.80371094 -2.26421875 15.90039062 -3 16 C-3.66 16.99 -4.32 17.98 -5 19 C-5.66 19 -6.32 19 -7 19 C-6.4253379 14.21357393 -5.01754357 10.46211213 -2.9375 6.125 C-2.38964844 4.97257812 -1.84179688 3.82015625 -1.27734375 2.6328125 C-0.85582031 1.76398438 -0.43429687 0.89515625 0 0 Z " fill="#2B2F37" transform="translate(271,384)"/>
<path d="M0 0 C3.63 0 7.26 0 11 0 C11 18.81 11 37.62 11 57 C8.03 57 5.06 57 2 57 C2 56.67 2 56.34 2 56 C4.64 56 7.28 56 10 56 C9.95456055 55.14510986 9.95456055 55.14510986 9.90820312 54.27294922 C9.01129809 36.83504549 8.88327723 19.4545429 9 2 C6.69 2 4.38 2 2 2 C2 9.26 2 16.52 2 24 C-0.16926659 20.74610012 -0.24080049 19.86604043 -0.1953125 16.11328125 C-0.18886719 15.17548828 -0.18242187 14.23769531 -0.17578125 13.27148438 C-0.15902344 12.29501953 -0.14226562 11.31855469 -0.125 10.3125 C-0.11597656 9.32443359 -0.10695312 8.33636719 -0.09765625 7.31835938 C-0.07408566 4.87880294 -0.03821469 2.43937099 0 0 Z " fill="#102432" transform="translate(235,309)"/>
<path d="M0 0 C1.97265625 0.265625 1.97265625 0.265625 4.97265625 2.265625 C4.97265625 3.585625 4.97265625 4.905625 4.97265625 6.265625 C3.98265625 6.265625 2.99265625 6.265625 1.97265625 6.265625 C1.97265625 5.275625 1.97265625 4.285625 1.97265625 3.265625 C-0.33734375 3.265625 -2.64734375 3.265625 -5.02734375 3.265625 C-5.02734375 4.915625 -5.02734375 6.565625 -5.02734375 8.265625 C-4.41246094 8.30300781 -3.79757812 8.34039062 -3.1640625 8.37890625 C-2.35582031 8.44464844 -1.54757812 8.51039063 -0.71484375 8.578125 C0.08566406 8.63613281 0.88617188 8.69414062 1.7109375 8.75390625 C4.3840476 9.35870318 5.36951441 10.06195772 6.97265625 12.265625 C6.84765625 15.328125 6.84765625 15.328125 5.97265625 18.265625 C2.83854323 20.35503368 1.99815153 20.53926912 -1.58984375 20.515625 C-2.76740234 20.52335937 -2.76740234 20.52335937 -3.96875 20.53125 C-6.02734375 20.265625 -6.02734375 20.265625 -8.02734375 18.265625 C-8.02734375 16.945625 -8.02734375 15.625625 -8.02734375 14.265625 C-7.03734375 14.265625 -6.04734375 14.265625 -5.02734375 14.265625 C-5.02734375 15.255625 -5.02734375 16.245625 -5.02734375 17.265625 C-1.56234375 16.770625 -1.56234375 16.770625 1.97265625 16.265625 C1.97265625 14.945625 1.97265625 13.625625 1.97265625 12.265625 C0.05453125 12.08 0.05453125 12.08 -1.90234375 11.890625 C-5.77734375 11.515625 -5.77734375 11.515625 -8.02734375 9.265625 C-8.27734375 5.765625 -8.27734375 5.765625 -8.02734375 2.265625 C-5.42029477 -0.34142398 -3.55396134 0.02657167 0 0 Z " fill="#2C2D34" transform="translate(328.02734375,383.734375)"/>
<path d="M0 0 C3 0.4375 3 0.4375 4.875 1.5 C6.64273274 4.5444286 6.36823916 7.0006012 6 10.4375 C4.8125 12.375 4.8125 12.375 3 13.4375 C0.5 13.8125 0.5 13.8125 -2 13.4375 C-2.43957031 12.94894531 -2.87914062 12.46039063 -3.33203125 11.95703125 C-5.57774611 9.91116924 -7.19310838 9.94444101 -10.1875 9.75 C-11.08855469 9.68425781 -11.98960937 9.61851562 -12.91796875 9.55078125 C-13.60503906 9.51339844 -14.29210937 9.47601563 -15 9.4375 C-15 11.0875 -15 12.7375 -15 14.4375 C-17.35953094 12.07796906 -17.49141413 10.65854383 -18 7.4375 C-13.48382401 7.36095464 -9.40914783 7.33521304 -5 8.4375 C-5.226875 7.86 -5.45375 7.2825 -5.6875 6.6875 C-6 4.4375 -6 4.4375 -4.9375 2.1875 C-3 0.4375 -3 0.4375 0 0 Z " fill="#1A3040" transform="translate(151,375.5625)"/>
<path d="M0 0 C0.66 0.33 1.32 0.66 2 1 C2 3.64 2 6.28 2 9 C2.99 9 3.98 9 5 9 C5 10.65 5 12.3 5 14 C5.99 14.33 6.98 14.66 8 15 C8 21 8 21 6.0625 23 C5.381875 23.66 4.70125 24.32 4 25 C3.2127322 27.1381966 3.2127322 27.1381966 3 29 C3.99 28.67 4.98 28.34 6 28 C6.33 26.02 6.66 24.04 7 22 C7.66 22 8.32 22 9 22 C9.9765625 28.0546875 9.9765625 28.0546875 10 30 C8 32 8 32 4.5 32.25 C1 32 1 32 -1 30 C-0.69903201 25.86169011 -0.32101984 23.48152976 2 20 C2.54109139 15.34661407 1.38402483 12.11420264 -0.328125 7.8984375 C-1.17248056 5.51264214 -1.30376965 3.50609959 -1 1 C-0.67 0.67 -0.34 0.34 0 0 Z " fill="#15364A" transform="translate(85,380)"/>
<path d="M0 0 C2.0078125 0.23046875 2.0078125 0.23046875 5.0078125 2.23046875 C5.0078125 3.55046875 5.0078125 4.87046875 5.0078125 6.23046875 C4.3478125 6.23046875 3.6878125 6.23046875 3.0078125 6.23046875 C2.6778125 5.57046875 2.3478125 4.91046875 2.0078125 4.23046875 C0.0278125 4.23046875 -1.9521875 4.23046875 -3.9921875 4.23046875 C-4.3221875 5.55046875 -4.6521875 6.87046875 -4.9921875 8.23046875 C-4.28191406 8.29105469 -3.57164062 8.35164063 -2.83984375 8.4140625 C-1.92074219 8.49785156 -1.00164062 8.58164062 -0.0546875 8.66796875 C1.32009766 8.78978516 1.32009766 8.78978516 2.72265625 8.9140625 C5.0078125 9.23046875 5.0078125 9.23046875 6.0078125 10.23046875 C6.28096065 15.96657986 6.28096065 15.96657986 6.0078125 18.23046875 C4.0078125 20.23046875 4.0078125 20.23046875 1.6953125 20.49609375 C0.8084375 20.4909375 -0.0784375 20.48578125 -0.9921875 20.48046875 C-2.3225 20.48820312 -2.3225 20.48820312 -3.6796875 20.49609375 C-5.9921875 20.23046875 -5.9921875 20.23046875 -7.9921875 18.23046875 C-7.9921875 16.91046875 -7.9921875 15.59046875 -7.9921875 14.23046875 C-7.3321875 14.23046875 -6.6721875 14.23046875 -5.9921875 14.23046875 C-5.9921875 15.22046875 -5.9921875 16.21046875 -5.9921875 17.23046875 C-3.0221875 17.23046875 -0.0521875 17.23046875 3.0078125 17.23046875 C2.6778125 15.58046875 2.3478125 13.93046875 2.0078125 12.23046875 C-0.01041667 12.06770833 -2.02864583 11.90494792 -4.046875 11.7421875 C-5.9921875 11.23046875 -5.9921875 11.23046875 -7.9921875 8.23046875 C-7.29542831 0.1480622 -7.29542831 0.1480622 0 0 Z " fill="#3C3E46" transform="translate(486.9921875,383.76953125)"/>
<path d="M0 0 C0.99 0 1.98 0 3 0 C3 2.97 3 5.94 3 9 C5.97 9 8.94 9 12 9 C12 6.03 12 3.06 12 0 C12.99 0 13.98 0 15 0 C15 6.6 15 13.2 15 20 C14.01 20 13.02 20 12 20 C12 17.03 12 14.06 12 11 C9.03 11 6.06 11 3 11 C3 13.97 3 16.94 3 20 C2.01 20 1.02 20 0 20 C0 13.4 0 6.8 0 0 Z " fill="#33343D" transform="translate(384,384)"/>
<path d="M0 0 C3.35541938 -0.47873499 5.9158612 -0.78627865 8.76123047 1.27734375 C10.58127658 3.11773432 12.26809475 5.02193778 13.9375 7 C15.15482268 8.38276827 16.37356413 9.76428887 17.59375 11.14453125 C18.17511719 11.81178223 18.75648437 12.4790332 19.35546875 13.16650391 C21.99434278 16.10859773 24.89489858 18.75622358 27.83984375 21.38671875 C29 23 29 23 28.69140625 25.20703125 C28.46324219 25.79871094 28.23507813 26.39039063 28 27 C24.28731906 25.45872649 22.01884302 23.19156766 19.25 20.3125 C11.45149454 12.06406007 11.45149454 12.06406007 2 6 C2 5.34 2 4.68 2 4 C3.32 4 4.64 4 6 4 C7.38232443 5.62626404 8.71937515 7.2925002 10 9 C10.66 9 11.32 9 12 9 C11.34 7.68 10.68 6.36 10 5 C9.34 5 8.68 5 8 5 C7.34 4.01 6.68 3.02 6 2 C2.41642759 1.74984127 2.41642759 1.74984127 -1 2 C-0.67 1.34 -0.34 0.68 0 0 Z " fill="#1C3446" transform="translate(104,357)"/>
<path d="M0 0 C4.29 0 8.58 0 13 0 C13 0.66 13 1.32 13 2 C9.7 2 6.4 2 3 2 C3 3.98 3 5.96 3 8 C6.3 8 9.6 8 13 8 C13 8.99 13 9.98 13 11 C9.7 11 6.4 11 3 11 C3 12.65 3 14.3 3 16 C6.3 16 9.6 16 13 16 C12.67 16.99 12.34 17.98 12 19 C8.04 19 4.08 19 0 19 C0 12.73 0 6.46 0 0 Z " fill="#48515C" transform="translate(449,385)"/>
<path d="M0 0 C0.99 0 1.98 0 3 0 C3 2.97 3 5.94 3 9 C5.97 9 8.94 9 12 9 C12 6.36 12 3.72 12 1 C12.99 0.67 13.98 0.34 15 0 C15 6.27 15 12.54 15 19 C14.34 19 13.68 19 13 19 C13 16.36 13 13.72 13 11 C9.7 11 6.4 11 3 11 C3 13.97 3 16.94 3 20 C2.01 20 1.02 20 0 20 C0 13.4 0 6.8 0 0 Z " fill="#2E3036" transform="translate(583,384)"/>
<path d="M0 0 C0.99 0.33 1.98 0.66 3 1 C3.33 2.98 3.66 4.96 4 7 C4.45375 6.34 4.9075 5.68 5.375 5 C5.91125 4.34 6.4475 3.68 7 3 C7.66 3 8.32 3 9 3 C9 2.34 9 1.68 9 1 C10.32 0.67 11.64 0.34 13 0 C11.47291037 3.43595166 9.40072955 6.11912454 7 9 C7.61875 9.886875 8.2375 10.77375 8.875 11.6875 C10.65397741 14.46061184 11.91083602 16.9140354 13 20 C8.7257442 18.4169423 6.73468206 15.49431596 4 12 C3.67 14.31 3.34 16.62 3 19 C2.01 19.33 1.02 19.66 0 20 C0 13.4 0 6.8 0 0 Z " fill="#3A3B44" transform="translate(429,384)"/>
<path d="M0 0 C3.96 0 7.92 0 12 0 C12 7.92 12 15.84 12 24 C11.34 24 10.68 24 10 24 C10 16.74 10 9.48 10 2 C7.36 2 4.72 2 2 2 C1.67 20.15 1.34 38.3 1 57 C0.67 57 0.34 57 0 57 C0 38.19 0 19.38 0 0 Z " fill="#64727B" transform="translate(605,309)"/>
<path d="M0 0 C3.3 0 6.6 0 10 0 C10.66 0.99 11.32 1.98 12 3 C8.7 3 5.4 3 2 3 C2.33 4.65 2.66 6.3 3 8 C5.31 8.33 7.62 8.66 10 9 C10 9.33 10 9.66 10 10 C7.69 10.33 5.38 10.66 3 11 C2.67 12.98 2.34 14.96 2 17 C3.60520004 16.93976735 5.20934327 16.85091401 6.8125 16.75 C7.70582031 16.70359375 8.59914063 16.6571875 9.51953125 16.609375 C12.16053515 16.20878584 12.16053515 16.20878584 13.82421875 13.953125 C14.21222656 13.30859375 14.60023438 12.6640625 15 12 C15.1875 14.875 15.1875 14.875 15 18 C10.25368713 21.16420858 5.63243123 20.12112755 0 20 C0 13.4 0 6.8 0 0 Z " fill="#2F3843" transform="translate(362,384)"/>
<path d="M0 0 C0.70125 0.144375 1.4025 0.28875 2.125 0.4375 C1.135 1.0975 0.145 1.7575 -0.875 2.4375 C-1.143125 3.51 -1.41125 4.5825 -1.6875 5.6875 C-2.86771047 9.41448044 -3.24387708 10.01906355 -6 12.375 C-7.97717124 14.14581599 -8.78634318 14.94900094 -9.265625 17.58984375 C-9.2838494 20.05139039 -9.2838494 20.05139039 -8.875 23.4375 C-9.205 22.4475 -9.535 21.4575 -9.875 20.4375 C-10.535 20.4375 -11.195 20.4375 -11.875 20.4375 C-11.875 22.4175 -11.875 24.3975 -11.875 26.4375 C-13.195 26.7675 -14.515 27.0975 -15.875 27.4375 C-15.625 24.5625 -15.625 24.5625 -14.875 21.4375 C-12.8125 20.0625 -12.8125 20.0625 -10.875 19.4375 C-10.875 18.1175 -10.875 16.7975 -10.875 15.4375 C-11.535 15.1075 -12.195 14.7775 -12.875 14.4375 C-12.545 14.1075 -12.215 13.7775 -11.875 13.4375 C-12.535 13.1075 -13.195 12.7775 -13.875 12.4375 C-13.545 11.1175 -13.215 9.7975 -12.875 8.4375 C-12.875 9.4275 -12.875 10.4175 -12.875 11.4375 C-12.215 11.4375 -11.555 11.4375 -10.875 11.4375 C-10.60300781 10.85484375 -10.33101563 10.2721875 -10.05078125 9.671875 C-7.76868618 5.3351362 -5.05129988 0.76867607 0 0 Z " fill="#293F4C" transform="translate(103.875,381.5625)"/>
<path d="M0 0 C3.75068199 0.45008184 4.78988517 1.50101252 7.125 4.375 C5.5658867 9.13895731 5.5658867 9.13895731 4.125 11.375 C1.125 12.5 1.125 12.5 -1.875 12.375 C-3.75 11.375 -3.75 11.375 -4.875 9.375 C-5.1875 5.8125 -5.1875 5.8125 -4.875 2.375 C-2.875 0.375 -2.875 0.375 0 0 Z " fill="#3ED61B" transform="translate(70.875,370.625)"/>
<path d="M0 0 C3.35435922 1.38801071 5.11290303 2.88629 7 6 C7 6.99 7 7.98 7 9 C6.01 8.67 5.02 8.34 4 8 C4 7.34 4 6.68 4 6 C3.01 6.495 3.01 6.495 2 7 C1.34 19.87 0.68 32.74 0 46 C-0.33 46 -0.66 46 -1 46 C-1.33 33.13 -1.66 20.26 -2 7 C-2.99 6.67 -3.98 6.34 -5 6 C-3.35 4.02 -1.7 2.04 0 0 Z " fill="#B3C0BF" transform="translate(109,294)"/>
<path d="M0 0 C2 2 2 2 2.25 5.5 C2 9 2 9 0 11 C-3.5 11.3125 -3.5 11.3125 -7 11 C-9 8 -9 8 -8.75 4.375 C-8.5025 3.26125 -8.255 2.1475 -8 1 C-5.23749964 -0.38125018 -3.05268901 -0.19079306 0 0 Z " fill="#43D118" transform="translate(155,339)"/>
<path d="M0 0 C3.3 0 6.6 0 10 0 C10 17.16 10 34.32 10 52 C9.67 52 9.34 52 9 52 C9 35.17 9 18.34 9 1 C7.02 1.66 5.04 2.32 3 3 C2.67 8.94 2.34 14.88 2 21 C1.34 21 0.68 21 0 21 C0 14.07 0 7.14 0 0 Z " fill="#072F44" transform="translate(647,310)"/>
<path d="M0 0 C1.06669922 0.00322266 2.13339844 0.00644531 3.23242188 0.00976562 C4.88661133 0.02233398 4.88661133 0.02233398 6.57421875 0.03515625 C7.69634766 0.03966797 8.81847656 0.04417969 9.97460938 0.04882812 C12.73703385 0.06058312 15.49934873 0.07701548 18.26171875 0.09765625 C18.26171875 0.75765625 18.26171875 1.41765625 18.26171875 2.09765625 C17.56087158 2.11747559 16.86002441 2.13729492 16.13793945 2.15771484 C12.94966713 2.25321791 9.76202728 2.36279496 6.57421875 2.47265625 C5.47142578 2.50359375 4.36863281 2.53453125 3.23242188 2.56640625 C1.63237305 2.62441406 1.63237305 2.62441406 0 2.68359375 C-0.97928467 2.71501465 -1.95856934 2.74643555 -2.9675293 2.77880859 C-6.92889984 3.23466813 -9.80608909 4.40976273 -13.00390625 6.76953125 C-15.38478876 9.96549066 -15.34211278 12.40110744 -15.48828125 16.34765625 C-15.545 17.6109375 -15.60171875 18.87421875 -15.66015625 20.17578125 C-15.6859375 21.14 -15.71171875 22.10421875 -15.73828125 23.09765625 C-16.39828125 22.76765625 -17.05828125 22.43765625 -17.73828125 22.09765625 C-18.42692736 9.20467069 -18.42692736 9.20467069 -15.92578125 5.41015625 C-11.13615311 0.34683508 -6.6783773 -0.03571325 0 0 Z " fill="#203847" transform="translate(275.73828125,308.90234375)"/>
<path d="M0 0 C0.33 0 0.66 0 1 0 C1.02483298 5.14119114 1.04292277 10.28234687 1.05493164 15.42358398 C1.05994129 17.17033497 1.06675085 18.9170818 1.07543945 20.66381836 C1.08765319 23.18344146 1.09326213 25.70300881 1.09765625 28.22265625 C1.10281754 28.99585709 1.10797882 29.76905792 1.11329651 30.56568909 C1.1137642 35.14927328 0.75676121 39.47776262 0 44 C-0.66 44 -1.32 44 -2 44 C-2 32.78 -2 21.56 -2 10 C-1.67 10 -1.34 10 -1 10 C-0.67 6.7 -0.34 3.4 0 0 Z " fill="#0A1F2E" transform="translate(107,302)"/>
<path d="M0 0 C3.96 0 7.92 0 12 0 C12 13.86 12 27.72 12 42 C11.67 42 11.34 42 11 42 C10.37174743 28.65965829 9.82321605 15.35700949 10 2 C7.36 2 4.72 2 2 2 C1.67 8.6 1.34 15.2 1 22 C0.67 22 0.34 22 0 22 C0 14.74 0 7.48 0 0 Z " fill="#5A6A73" transform="translate(359,309)"/>
<path d="M0 0 C3 1 3 1 4 3 C4.23553948 7.23971058 4.32845886 10.36178302 2 14 C-0.31 14 -2.62 14 -5 14 C-6.40907283 11.18185434 -5.50872691 9.82722796 -4.5625 6.875 C-4.27503906 5.96492188 -3.98757812 5.05484375 -3.69140625 4.1171875 C-3.46324219 3.41851562 -3.23507813 2.71984375 -3 2 C-2.01 2 -1.02 2 0 2 C0 1.34 0 0.68 0 0 Z " fill="#143145" transform="translate(111,416)"/>
<path d="M0 0 C0 0.99 0 1.98 0 3 C0.99 3 1.98 3 3 3 C1.10600285 4.75202288 -0.79011738 6.50164978 -2.6875 8.25 C-3.21794922 8.74113281 -3.74839844 9.23226563 -4.29492188 9.73828125 C-11.11493751 16.01436926 -11.11493751 16.01436926 -14 18 C-14.99 17.67 -15.98 17.34 -17 17 C-16.44600499 13.32275774 -15.16350607 11.93838778 -12.3125 9.625 C-9.60539065 7.37474573 -7.05969527 5.10540395 -4.625 2.5625 C-2 0 -2 0 0 0 Z " fill="#1B3140" transform="translate(93,357)"/>
<path d="M0 0 C3.37308761 1.12436254 4.15123097 2.07342733 6.375 4.75 C9.12534216 7.99668841 11.94652216 11.03905179 15 14 C14.67 14.99 14.34 15.98 14 17 C9.13720713 14.41664129 4.8315277 10.94561785 1 7 C1 6.34 1 5.68 1 5 C-0.32 4.34 -1.64 3.68 -3 3 C-2.01 2.01 -1.02 1.02 0 0 Z " fill="#164054" transform="translate(112,377)"/>
<path d="M0 0 C8.62448851 -0.4841189 20.67186692 -0.75018597 28.03125 4.4296875 C32.35179107 9.47869189 32.26492661 14.73388753 32.234375 21.03515625 C31.93787376 24.7858969 31.06452687 26.90320969 29 30 C28 27 28 27 28.9375 24.875 C30.85309796 19.69161728 30.58429893 14.85600837 28.9375 9.625 C26.4522453 6.25788072 23.96189415 4.98302637 20 4 C17.54863392 3.65450545 15.113293 3.43202852 12.64453125 3.25 C8.36374519 2.84531712 4.19561387 1.91946432 0 1 C0 0.67 0 0.34 0 0 Z " fill="#1A2D3B" transform="translate(276,333)"/>
<path d="M0 0 C3 1 3 1 4.82421875 4.4921875 C5.45645873 5.94833599 6.07711137 7.40955756 6.6875 8.875 C7.00783203 9.60847656 7.32816406 10.34195312 7.65820312 11.09765625 C10 16.58015725 10 16.58015725 10 20 C9.01 20 8.02 20 7 20 C6.67 18.68 6.34 17.36 6 16 C3.36 15.67 0.72 15.34 -2 15 C-2 14.67 -2 14.34 -2 14 C0.31 14 2.62 14 5 14 C4.505 13.071875 4.01 12.14375 3.5 11.1875 C2 8 2 8 2 5 C1.34 5 0.68 5 0 5 C-0.33 5.99 -0.66 6.98 -1 8 C-1.33 8 -1.66 8 -2 8 C-1.125 1.125 -1.125 1.125 0 0 Z " fill="#12151E" transform="translate(506,384)"/>
<path d="M0 0 C0.66 0 1.32 0 2 0 C2 9.57 2 19.14 2 29 C2.99 29 3.98 29 5 29 C5 29.99 5 30.98 5 32 C2.525 32.495 2.525 32.495 0 33 C0 22.11 0 11.22 0 0 Z " fill="#09415C" transform="translate(130,331)"/>
<path d="M0 0 C3.0625 0.25 3.0625 0.25 6.0625 2.25 C5.7325 3.57 5.4025 4.89 5.0625 6.25 C4.4025 6.25 3.7425 6.25 3.0625 6.25 C2.7325 5.59 2.4025 4.93 2.0625 4.25 C1.0725 4.25 0.0825 4.25 -0.9375 4.25 C-0.9375 4.91 -0.9375 5.57 -0.9375 6.25 C0.3825 6.58 1.7025 6.91 3.0625 7.25 C3.0625 8.57 3.0625 9.89 3.0625 11.25 C0.32163944 11.47223194 -1.37713721 11.59781139 -3.75 10.125 C-5.46599028 7.41554166 -5.271228 5.38704316 -4.9375 2.25 C-2.9375 0.25 -2.9375 0.25 0 0 Z " fill="#162A3A" transform="translate(74.9375,334.75)"/>
<path d="M0 0 C3.5625 -0.4375 3.5625 -0.4375 7 0 C7.66 0.66 8.32 1.32 9 2 C8.625 4.625 8.625 4.625 8 7 C7.67 5.68 7.34 4.36 7 3 C5.68 3.33 4.36 3.66 3 4 C3 5.65 3 7.3 3 9 C4.65 9.33 6.3 9.66 8 10 C7.34 10.66 6.68 11.32 6 12 C3.625 12 3.625 12 1 11 C-1.3125 7.9375 -1.3125 7.9375 -3 5 C-1.9375 2.5 -1.9375 2.5 0 0 Z " fill="#4ACD1B" transform="translate(126,318)"/>
<path d="M0 0 C0.66 0 1.32 0 2 0 C2.99 2.97 3.98 5.94 5 9 C0.545 9.495 0.545 9.495 -4 10 C-4.33 11.65 -4.66 13.3 -5 15 C-5.99 15 -6.98 15 -8 15 C-7.01 11.7 -6.02 8.4 -5 5 C-4.34 5.33 -3.68 5.66 -3 6 C-2.01 4.02 -1.02 2.04 0 0 Z " fill="#404147" transform="translate(346,389)"/>
<path d="M0 0 C5.36842105 -0.35789474 5.36842105 -0.35789474 7.875 1.0625 C9.63763183 4.09814371 9.37331109 6.57798172 9 10 C8.01 10.66 7.02 11.32 6 12 C6 11.34 6 10.68 6 10 C4.68 10 3.36 10 2 10 C1.19032562 7.08517222 0.78154007 5.53886783 1.9375 2.6875 C2.288125 2.130625 2.63875 1.57375 3 1 C1.68 1.33 0.36 1.66 -1 2 C-0.67 1.34 -0.34 0.68 0 0 Z " fill="#213544" transform="translate(148,376)"/>
<path d="M0 0 C0.33 0 0.66 0 1 0 C1 4.95 1 9.9 1 15 C2.258125 14.484375 3.51625 13.96875 4.8125 13.4375 C8.625 11.875 8.625 11.875 12 13 C12.33 13.99 12.66 14.98 13 16 C11.21189234 16.69670416 9.41937948 17.38211189 7.625 18.0625 C6.62726563 18.44535156 5.62953125 18.82820313 4.6015625 19.22265625 C2 20 2 20 0 19 C-1.56026899 15.22545705 -0.88900497 11.22060071 -0.5625 7.25 C-0.48418945 6.20392578 -0.48418945 6.20392578 -0.40429688 5.13671875 C-0.27525928 3.42403797 -0.13840386 1.71194934 0 0 Z " fill="#394854" transform="translate(113,312)"/>
<path d="M0 0 C1.32 0 2.64 0 4 0 C4.33 0.99 4.66 1.98 5 3 C5.66 2.01 6.32 1.02 7 0 C7 12.54 7 25.08 7 38 C6.34 38 5.68 38 5 38 C5 27.77 5 17.54 5 7 C3.35 6.67 1.7 6.34 0 6 C-0.38218767 4.34385343 -0.71395102 2.67542976 -1 1 C-0.67 0.67 -0.34 0.34 0 0 Z " fill="#ABD498" transform="translate(129,321)"/>
<path d="M0 0 C1.98 0.495 1.98 0.495 4 1 C4 1.66 4 2.32 4 3 C4.66 3 5.32 3 6 3 C6.33 2.01 6.66 1.02 7 0 C10.67420866 0.30618405 11.78135513 0.75771784 14.3125 3.5625 C15.1478125 4.7690625 15.1478125 4.7690625 16 6 C15.34 6.66 14.68 7.32 14 8 C13.67 7.01 13.34 6.02 13 5 C10.03 5.66 7.06 6.32 4 7 C4 6.01 4 5.02 4 4 C2.35 3.67 0.7 3.34 -1 3 C-0.67 2.01 -0.34 1.02 0 0 Z " fill="#4E636F" transform="translate(74,338)"/>
<path d="M0 0 C0.89783203 -0.01160156 1.79566406 -0.02320313 2.72070312 -0.03515625 C6.4356778 -0.01858387 9.18774027 0.01073521 12.55859375 1.6484375 C13.9375 3.375 13.9375 3.375 13.9375 7.375 C18.58336892 6.89015724 18.58336892 6.89015724 22.9375 5.375 C22.9375 6.365 22.9375 7.355 22.9375 8.375 C19.3075 8.375 15.6775 8.375 11.9375 8.375 C11.2775 6.725 10.6175 5.075 9.9375 3.375 C6.8245419 1.81852095 3.53838167 2.19053952 0.125 2.1875 C-0.58720703 2.17525391 -1.29941406 2.16300781 -2.03320312 2.15039062 C-6.1642489 2.13892611 -9.35017002 2.52977508 -13.0625 4.375 C-13.3925 7.015 -13.7225 9.655 -14.0625 12.375 C-14.3925 12.375 -14.7225 12.375 -15.0625 12.375 C-15.19786774 10.94010191 -15.29467143 9.50152893 -15.375 8.0625 C-15.43300781 7.26199219 -15.49101562 6.46148437 -15.55078125 5.63671875 C-15.0625 3.375 -15.0625 3.375 -13.171875 1.60546875 C-8.74880615 -0.14486629 -4.71322148 -0.06116654 0 0 Z " fill="#0F2836" transform="translate(283.0625,317.625)"/>
<path d="M0 0 C0.66 0.33 1.32 0.66 2 1 C2.1953125 7.0546875 2.1953125 7.0546875 2 9 C0 11 0 11 -2.3125 11.265625 C-3.199375 11.26046875 -4.08625 11.2553125 -5 11.25 C-6.3303125 11.25773437 -6.3303125 11.25773437 -7.6875 11.265625 C-10 11 -10 11 -12 9 C-12 7.68 -12 6.36 -12 5 C-11.34 5 -10.68 5 -10 5 C-10 5.99 -10 6.98 -10 8 C-7.03 8 -4.06 8 -1 8 C-1.33 6.02 -1.66 4.04 -2 2 C-1.34 2 -0.68 2 0 2 C0 1.34 0 0.68 0 0 Z " fill="#363C46" transform="translate(491,393)"/>
<path d="M0 0 C3.3 0 6.6 0 10 0 C10.38218767 1.65614657 10.71395102 3.32457024 11 5 C10 6 10 6 7.71484375 6.09765625 C6.34005859 6.08025391 6.34005859 6.08025391 4.9375 6.0625 C4.01839844 6.05347656 3.09929687 6.04445313 2.15234375 6.03515625 C1.44207031 6.02355469 0.73179687 6.01195312 0 6 C0 4.02 0 2.04 0 0 Z " fill="#DCDCDD" transform="translate(364,395)"/>
<path d="M0 0 C2.33294775 -0.04241723 4.66702567 -0.04092937 7 0 C8 1 8 1 8.0625 4.5625 C8.041875 5.696875 8.02125 6.83125 8 8 C5.36 8 2.72 8 0 8 C0 5.36 0 2.72 0 0 Z " fill="#E6E6E8" transform="translate(290,387)"/>
<path d="M0 0 C4.62 0 9.24 0 14 0 C14 0.66 14 1.32 14 2 C12.02 2 10.04 2 8 2 C8 7.61 8 13.22 8 19 C7.34 19 6.68 19 6 19 C6 13.39 6 7.78 6 2 C4.02 2 2.04 2 0 2 C0 1.34 0 0.68 0 0 Z " fill="#13141D" transform="translate(563,385)"/>
<path d="M0 0 C3.375 -0.125 3.375 -0.125 7 0 C9 2 9 2 9.125 4.625 C9.08375 5.40875 9.0425 6.1925 9 7 C6.03 7 3.06 7 0 7 C0 4.69 0 2.38 0 0 Z " fill="#F2F2F2" transform="translate(546,387)"/>
<path d="M0 0 C4.29 0 8.58 0 13 0 C12.67 0.99 12.34 1.98 12 3 C11.38511719 3.03738281 10.77023437 3.07476562 10.13671875 3.11328125 C8.92435547 3.21189453 8.92435547 3.21189453 7.6875 3.3125 C6.88699219 3.37050781 6.08648437 3.42851562 5.26171875 3.48828125 C2.61257517 4.0876557 1.79526159 5.03626811 0 7 C-0.66 7 -1.32 7 -2 7 C-2.33 8.65 -2.66 10.3 -3 12 C-3.66 12 -4.32 12 -5 12 C-4.42365861 7.24518354 -2.44931479 4.02951788 0 0 Z " fill="#14384A" transform="translate(422,309)"/>
<path d="M0 0 C0.99 0.33 1.98 0.66 3 1 C3 6.94 3 12.88 3 19 C2.01 19.33 1.02 19.66 0 20 C0 13.4 0 6.8 0 0 Z " fill="#2B3845" transform="translate(606,384)"/>
<path d="M0 0 C0.66 1.32 1.32 2.64 2 4 C2.66 4 3.32 4 4 4 C5.625 6 5.625 6 7 8 C6.67 8.66 6.34 9.32 6 10 C3.95880212 8.38405168 1.95927063 6.7143618 0 5 C0 4.34 0 3.68 0 3 C-1.32 3 -2.64 3 -4 3 C-3.67 4.32 -3.34 5.64 -3 7 C-4.65 7.66 -6.3 8.32 -8 9 C-7.4140625 2.84765625 -7.4140625 2.84765625 -7 1 C-4.53721199 -0.231394 -2.7204945 -0.07159196 0 0 Z " fill="#113B51" transform="translate(110,358)"/>
<path d="M0 0 C0.99 0 1.98 0 3 0 C3 6.27 3 12.54 3 19 C2.34 19 1.68 19 1 19 C1 16.03 1 13.06 1 10 C-2.3 10 -5.6 10 -9 10 C-9 9.67 -9 9.34 -9 9 C-6.03 9 -3.06 9 0 9 C0 6.03 0 3.06 0 0 Z " fill="#151620" transform="translate(396,384)"/>
<path d="M0 0 C2.46176937 0.96712368 4.24786572 2.24936982 6.328125 3.87890625 C7.03453125 4.42675781 7.7409375 4.97460938 8.46875 5.5390625 C9.26539062 6.17134766 9.26539062 6.17134766 10.078125 6.81640625 C8.098125 7.80640625 8.098125 7.80640625 6.078125 8.81640625 C5.088125 8.15640625 4.098125 7.49640625 3.078125 6.81640625 C3.078125 6.15640625 3.078125 5.49640625 3.078125 4.81640625 C0.768125 5.14640625 -1.541875 5.47640625 -3.921875 5.81640625 C-4.251875 4.49640625 -4.581875 3.17640625 -4.921875 1.81640625 C-1.921875 -0.18359375 -1.921875 -0.18359375 0 0 Z " fill="#E2E0E0" transform="translate(106.921875,350.18359375)"/>
<path d="M0 0 C0.66 0 1.32 0 2 0 C3.6875 1.8125 3.6875 1.8125 5 4 C4.67 4.99 4.34 5.98 4 7 C4.33 7.99 4.66 8.98 5 10 C4.67 10.66 4.34 11.32 4 12 C2.68 11.34 1.36 10.68 0 10 C-0.99 10.66 -1.98 11.32 -3 12 C-2.34 10.35 -1.68 8.7 -1 7 C-1.99 7.33 -2.98 7.66 -4 8 C-2.87548273 5.0280615 -1.77706209 2.66559313 0 0 Z " fill="#143343" transform="translate(109,285)"/>
<path d="M0 0 C3.96 0 7.92 0 12 0 C12 0.66 12 1.32 12 2 C8.7 2 5.4 2 2 2 C2 3.98 2 5.96 2 8 C4.97 8 7.94 8 11 8 C11 8.66 11 9.32 11 10 C9.54176788 10.0270043 8.08339325 10.04639787 6.625 10.0625 C5.81289063 10.07410156 5.00078125 10.08570313 4.1640625 10.09765625 C2 10 2 10 0 9 C0 6.03 0 3.06 0 0 Z " fill="#0E141F" transform="translate(450,385)"/>
<path d="M0 0 C0.33 0.66 0.66 1.32 1 2 C0.67 2.66 0.34 3.32 0 4 C1.98 3.01 3.96 2.02 6 1 C7.36952673 3.73905345 7.12621361 5.97087332 7 9 C6.67 9.66 6.34 10.32 6 11 C5.01 11 4.02 11 3 11 C2.67 9.35 2.34 7.7 2 6 C1.01 6.33 0.02 6.66 -1 7 C-1 6.34 -1 5.68 -1 5 C-1.99 4.67 -2.98 4.34 -4 4 C-2.68 2.68 -1.36 1.36 0 0 Z " fill="#293943" transform="translate(102,363)"/>
<path d="M0 0 C1.32 0.66 2.64 1.32 4 2 C4 5.10551666 3.4606285 6.35261084 2 9 C-0.375 9.125 -0.375 9.125 -3 9 C-3.66 8.34 -4.32 7.68 -5 7 C-4.8125 4.9375 -4.8125 4.9375 -4 3 C-3.01 2.67 -2.02 2.34 -1 2 C-0.67 1.34 -0.34 0.68 0 0 Z " fill="#314454" transform="translate(115,340)"/>
<path d="M0 0 C1.32 0 2.64 0 4 0 C5.38089233 1.62748024 6.70213607 3.30556653 8 5 C11.10809894 7.92801596 14.35645577 10.70542749 17.7109375 13.34765625 C21.37681768 16.24128248 23.61291697 19.05213192 26 23 C22.28731906 21.45872649 20.01884302 19.19156766 17.25 16.3125 C9.45149454 8.06406007 9.45149454 8.06406007 0 2 C0 1.34 0 0.68 0 0 Z " fill="#24333C" transform="translate(106,361)"/>
<path d="M0 0 C12.87 0.495 12.87 0.495 26 1 C26 1.66 26 2.32 26 3 C22.41673499 3.05814085 18.83359162 3.09364357 15.25 3.125 C14.23421875 3.14175781 13.2184375 3.15851563 12.171875 3.17578125 C11.1921875 3.18222656 10.2125 3.18867188 9.203125 3.1953125 C7.85202637 3.21102295 7.85202637 3.21102295 6.47363281 3.22705078 C3.86073144 2.98721676 2.24335334 2.32312064 0 1 C0 0.67 0 0.34 0 0 Z " fill="#424D56" transform="translate(184,365)"/>
<path d="M0 0 C3.63 0 7.26 0 11 0 C11.33 0.66 11.66 1.32 12 2 C8.7 2 5.4 2 2 2 C2 7.28 2 12.56 2 18 C-0.16969145 13.66061709 -0.21326104 11.51609592 -0.125 6.75 C-0.10695313 5.48671875 -0.08890625 4.2234375 -0.0703125 2.921875 C-0.04710937 1.95765625 -0.02390625 0.9934375 0 0 Z " fill="#070A13" transform="translate(543,385)"/>
<path d="M0 0 C0.66 0 1.32 0 2 0 C3.125 1.6875 3.125 1.6875 4 4 C3.125 6.75 3.125 6.75 2 9 C-0.31 8.67 -2.62 8.34 -5 8 C-5 6.35 -5 4.7 -5 3 C-3.35 2.67 -1.7 2.34 0 2 C0 1.34 0 0.68 0 0 Z " fill="#4FD025" transform="translate(74,372)"/>
<path d="M0 0 C0.66 0 1.32 0 2 0 C2.71484375 1.703125 2.71484375 1.703125 3 4 C1.56640625 6.359375 1.56640625 6.359375 -0.4375 8.75 C-1.42556641 9.94882812 -1.42556641 9.94882812 -2.43359375 11.171875 C-2.95050781 11.77515625 -3.46742188 12.3784375 -4 13 C-4.12375 12.360625 -4.2475 11.72125 -4.375 11.0625 C-4.58125 10.381875 -4.7875 9.70125 -5 9 C-5.66 8.67 -6.32 8.34 -7 8 C-5.88200014 6.66079162 -4.75538103 5.32877444 -3.625 4 C-2.68527344 2.88625 -2.68527344 2.88625 -1.7265625 1.75 C-1.15679687 1.1725 -0.58703125 0.595 0 0 Z " fill="#2C414F" transform="translate(145,347)"/>
<path d="M0 0 C7.92 0 15.84 0 24 0 C24 0.66 24 1.32 24 2 C11.625 2.495 11.625 2.495 -1 3 C-0.67 2.01 -0.34 1.02 0 0 Z " fill="#20374A" transform="translate(188,309)"/>
<path d="M0 0 C21.3984599 -0.68292957 21.3984599 -0.68292957 28 5 C18.60269048 3.9644231 9.27402919 2.88284826 0 1 C0 0.67 0 0.34 0 0 Z " fill="#122A3C" transform="translate(192,333)"/>
<path d="M0 0 C0.33 0 0.66 0 1 0 C1.33 3.3 1.66 6.6 2 10 C4.475 10.99 4.475 10.99 7 12 C7 10.35 7 8.7 7 7 C7.66 7.33 8.32 7.66 9 8 C8.25 12.75 8.25 12.75 6 15 C2.70285207 14.67028521 1.3773161 14.3773161 -1 12 C-1.23600253 7.83062202 -0.98329211 4.05607995 0 0 Z " fill="#122432" transform="translate(129,399)"/>
<path d="M0 0 C0.99 0.99 1.98 1.98 3 3 C2.34 4.98 1.68 6.96 1 9 C-3.875 8.125 -3.875 8.125 -5 7 C-5.04063832 5.33382885 -5.042721 3.66611905 -5 2 C-4.01 1.67 -3.02 1.34 -2 1 C-1.34 1.33 -0.68 1.66 0 2 C0 1.34 0 0.68 0 0 Z " fill="#334652" transform="translate(135,402)"/>
<path d="M0 0 C4.62 0 9.24 0 14 0 C14 0.99 14 1.98 14 3 C9.71 2.67 5.42 2.34 1 2 C1.66 3.65 2.32 5.3 3 7 C2.625 9.3125 2.625 9.3125 2 11 C0 9 0 9 -0.1953125 6.8359375 C-0.13020833 4.55729167 -0.06510417 2.27864583 0 0 Z " fill="#0F2838" transform="translate(132,381)"/>
<path d="M0 0 C0.66 0.33 1.32 0.66 2 1 C2 3.64 2 6.28 2 9 C2.99 9 3.98 9 5 9 C5 10.65 5 12.3 5 14 C5.99 14.33 6.98 14.66 8 15 C6.35 15.33 4.7 15.66 3 16 C2.32243118 14.44219668 1.65840543 12.87849904 1 11.3125 C0.62875 10.44238281 0.2575 9.57226562 -0.125 8.67578125 C-1.02480731 5.92413835 -1.24153265 3.87323215 -1 1 C-0.67 0.67 -0.34 0.34 0 0 Z " fill="#122834" transform="translate(85,380)"/>
<path d="M0 0 C2.64 0 5.28 0 8 0 C8.33 1.65 8.66 3.3 9 5 C6.03 5 3.06 5 0 5 C0 3.35 0 1.7 0 0 Z " fill="#E6E5E7" transform="translate(364,387)"/>
<path d="M0 0 C0.99 0.99 1.98 1.98 3 3 C0.19195732 5.96404505 -2.18315774 8.44499019 -6 10 C-6.33 8.68 -6.66 7.36 -7 6 C-4.69 4.02 -2.38 2.04 0 0 Z " fill="#1E343B" transform="translate(83,365)"/>
<path d="M0 0 C0.99 0 1.98 0 3 0 C3 2.64 3 5.28 3 8 C2.01 8.495 2.01 8.495 1 9 C2.32 9.66 3.64 10.32 5 11 C2.69 11 0.38 11 -2 11 C-3 9 -3 9 -2.44140625 6.8359375 C-2.15136719 6.02382813 -1.86132812 5.21171875 -1.5625 4.375 C-1.27503906 3.55773437 -0.98757812 2.74046875 -0.69140625 1.8984375 C-0.46324219 1.27195312 -0.23507813 0.64546875 0 0 Z " fill="#2E4150" transform="translate(108,419)"/>
<path d="M0 0 C1.32 0.33 2.64 0.66 4 1 C4 2.98 4 4.96 4 7 C3.01 6.34 2.02 5.68 1 5 C-0.32 7.64 -1.64 10.28 -3 13 C-4.08644535 8.6542186 -3.90680911 8.05039452 -2.0625 4.25 C-1.68222656 3.45078125 -1.30195313 2.6515625 -0.91015625 1.828125 C-0.60980469 1.22484375 -0.30945313 0.6215625 0 0 Z " fill="#25282F" transform="translate(271,384)"/>
<path d="M0 0 C1.32 0 2.64 0 4 0 C3.34 2.31 2.68 4.62 2 7 C2.33 7.33 2.66 7.66 3 8 C3 8.99 3 9.98 3 11 C1.68 10.67 0.36 10.34 -1 10 C-1 9.01 -1 8.02 -1 7 C-1.99 7.33 -2.98 7.66 -4 8 C-2.87548273 5.0280615 -1.77706209 2.66559313 0 0 Z " fill="#1F4152" transform="translate(104,292)"/>
<path d="M0 0 C2.3125 0.5625 2.3125 0.5625 5 2 C7.01015046 5.55126581 8.12336127 7.84040404 7.6875 11.9375 C7.460625 12.618125 7.23375 13.29875 7 14 C3.03810217 9.76486783 1.56818272 5.452999 0 0 Z " fill="#133D52" transform="translate(111,290)"/>
<path d="M0 0 C0.99 0 1.98 0 3 0 C3 0.99 3 1.98 3 3 C4.6396875 2.938125 4.6396875 2.938125 6.3125 2.875 C10 3 10 3 13 5 C10.64653604 6.17673198 9.1193967 6.16623866 6.5 6.1875 C5.7059375 6.20167969 4.911875 6.21585937 4.09375 6.23046875 C2 6 2 6 0 4 C0 2.68 0 1.36 0 0 Z " fill="#43464E" transform="translate(320,398)"/>
<path d="M0 0 C1.43655854 -0.08131463 2.8744483 -0.13933559 4.3125 -0.1875 C5.51326172 -0.23970703 5.51326172 -0.23970703 6.73828125 -0.29296875 C9 0 9 0 10.8125 1.3125 C12 3 12 3 11.6875 6.1875 C11.460625 7.115625 11.23375 8.04375 11 9 C9.68 9 8.36 9 7 9 C7.33 7.35 7.66 5.7 8 4 C5.08235 2.0549 3.37462715 1.54723683 0 1 C0 0.67 0 0.34 0 0 Z " fill="#1E232C" transform="translate(323,393)"/>
<path d="M0 0 C0.66 0 1.32 0 2 0 C2 0.66 2 1.32 2 2 C2.66 2 3.32 2 4 2 C4.125 5.375 4.125 5.375 4 9 C2 11 2 11 -0.3828125 11.1953125 C-1.28773438 11.17210937 -2.19265625 11.14890625 -3.125 11.125 C-4.49011719 11.09792969 -4.49011719 11.09792969 -5.8828125 11.0703125 C-6.58148437 11.04710937 -7.28015625 11.02390625 -8 11 C-8 10.67 -8 10.34 -8 10 C-5.36 9.67 -2.72 9.34 0 9 C0 8.236875 0 7.47375 0 6.6875 C0 4.45833333 0 2.22916667 0 0 Z " fill="#31333D" transform="translate(554,385)"/>
<path d="M0 0 C0.66 0.33 1.32 0.66 2 1 C2.99 1 3.98 1 5 1 C4.67 1.99 4.34 2.98 4 4 C3.195625 4.28875 2.39125 4.5775 1.5625 4.875 C-1.23928441 5.77944219 -1.23928441 5.77944219 -2.3125 8.625 C-2.539375 9.40875 -2.76625 10.1925 -3 11 C-3.66 10.67 -4.32 10.34 -5 10 C-4.50769231 3.47692308 -4.50769231 3.47692308 -1.9375 1.0625 C-0.9784375 0.5365625 -0.9784375 0.5365625 0 0 Z " fill="#113143" transform="translate(104,346)"/>
<path d="M0 0 C0.66 0 1.32 0 2 0 C2.33 0.66 2.66 1.32 3 2 C3.99 2 4.98 2 6 2 C8 4 8 4 8.125 7.125 C8.08375 8.07375 8.0425 9.0225 8 10 C8.66 10 9.32 10 10 10 C9.67 11.32 9.34 12.64 9 14 C9 13.01 9 12.02 9 11 C8.34 11 7.68 11 7 11 C5.2734375 9.1015625 5.2734375 9.1015625 3.375 6.625 C2.42753906 5.40683594 2.42753906 5.40683594 1.4609375 4.1640625 C0 2 0 2 0 0 Z " fill="#162F3F" transform="translate(85,343)"/>
<path d="M0 0 C2.50298434 2.93828597 3.46930939 5.17902761 4 9 C1.69 9 -0.62 9 -3 9 C-2.44271087 5.65626525 -1.64826111 2.96687001 0 0 Z " fill="#D6D8DB" transform="translate(272,388)"/>
<path d="M0 0 C0.66 0.99 1.32 1.98 2 3 C1.649375 3.515625 1.29875 4.03125 0.9375 4.5625 C-0.3615641 7.94006667 0.32782319 10.50468057 1 14 C0.01 14 -0.98 14 -2 14 C-3.36191995 11.2761601 -3.06161289 9.01903173 -3 6 C-3 5.01 -3 4.02 -3 3 C-1.5 1.3125 -1.5 1.3125 0 0 Z " fill="#254D65" transform="translate(89,375)"/>
<path d="M0 0 C0.66 0 1.32 0 2 0 C2.9765625 6.0546875 2.9765625 6.0546875 3 8 C1 10 1 10 -2.625 10.125 C-3.73875 10.08375 -4.8525 10.0425 -6 10 C-6 9.34 -6 8.68 -6 8 C-4.02 8 -2.04 8 0 8 C0 5.36 0 2.72 0 0 Z " fill="#1C2E3C" transform="translate(92,402)"/>
<path d="M0 0 C0.66 0.33 1.32 0.66 2 1 C2.73075648 3.3140622 3.40138258 5.64828869 4 8 C1.69 8.33 -0.62 8.66 -3 9 C-2.5020163 5.26512223 -2.12508244 3.18762365 0 0 Z " fill="#DEE0E1" transform="translate(528,389)"/>
<path d="M0 0 C0.66 0 1.32 0 2 0 C2.99 2.64 3.98 5.28 5 8 C2.69 8 0.38 8 -2 8 C-1.125 2.25 -1.125 2.25 0 0 Z " fill="#D9DBDD" transform="translate(346,389)"/>
<path d="M0 0 C0.99 0.33 1.98 0.66 3 1 C4.1875 4.0625 4.1875 4.0625 5 7 C4.34 7.66 3.68 8.32 3 9 C2.67 7.68 2.34 6.36 2 5 C1.34 5 0.68 5 0 5 C-0.33 5.99 -0.66 6.98 -1 8 C-1.33 8 -1.66 8 -2 8 C-1.125 1.125 -1.125 1.125 0 0 Z " fill="#282C36" transform="translate(506,384)"/>
<path d="M0 0 C0.33 0 0.66 0 1 0 C1.33 5.28 1.66 10.56 2 16 C2.99 16.33 3.98 16.66 5 17 C5 17.99 5 18.98 5 20 C3.35 20.33 1.7 20.66 0 21 C0 14.07 0 7.14 0 0 Z " fill="#023850" transform="translate(130,343)"/>
<path d="M0 0 C0.33 0 0.66 0 1 0 C1.04254356 1.99954746 1.04080783 4.00041636 1 6 C0 7 0 7 -2.94140625 7.09765625 C-4.73384766 7.08025391 -4.73384766 7.08025391 -6.5625 7.0625 C-8.35880859 7.04896484 -8.35880859 7.04896484 -10.19140625 7.03515625 C-11.11824219 7.02355469 -12.04507812 7.01195312 -13 7 C-12.67 6.34 -12.34 5.68 -12 5 C-9.44588787 4.68467751 -6.91917172 4.62046299 -4.34765625 4.5390625 C-1.82349143 4.24675036 -1.82349143 4.24675036 -0.68359375 1.9609375 C-0.45800781 1.31382812 -0.23242188 0.66671875 0 0 Z " fill="#1D232C" transform="translate(376,396)"/>
<path d="M0 0 C0.99 0 1.98 0 3 0 C3.67354499 1.43429001 4.33859701 2.87257057 5 4.3125 C5.556875 5.51326172 5.556875 5.51326172 6.125 6.73828125 C7 9 7 9 7 12 C6.01 11.67 5.02 11.34 4 11 C3.67 8.69 3.34 6.38 3 4 C2.01 4 1.02 4 0 4 C0 2.68 0 1.36 0 0 Z " fill="#252830" transform="translate(527,384)"/>
<path d="M0 0 C3.45201639 1.47721422 5.64961936 3.43794001 8.25 6.125 C8.95640625 6.84945313 9.6628125 7.57390625 10.390625 8.3203125 C11.18726562 9.15175781 11.18726562 9.15175781 12 10 C11.67 10.99 11.34 11.98 11 13 C9.99403703 12.0479279 8.99538437 11.08812654 8 10.125 C7.443125 9.59132813 6.88625 9.05765625 6.3125 8.5078125 C5 7 5 7 5 5 C4.360625 4.731875 3.72125 4.46375 3.0625 4.1875 C1 3 1 3 0 0 Z " fill="#20364C" transform="translate(115,381)"/>
<path d="M0 0 C0.66 1.32 1.32 2.64 2 4 C1.01 3.34 0.02 2.68 -1 2 C-1.99 2 -2.98 2 -4 2 C-3.34 2.66 -2.68 3.32 -2 4 C-2.66 4 -3.32 4 -4 4 C-4 5.32 -4 6.64 -4 8 C-4.99 8 -5.98 8 -7 8 C-7.6875 5.6875 -7.6875 5.6875 -8 3 C-5.90994325 -0.36731366 -3.75103888 -0.30413829 0 0 Z " fill="#1B2B3B" transform="translate(86,318)"/>
<path d="M0 0 C2.6855594 2.6855594 3.06049974 5.37621328 4 9 C2.68 8.67 1.36 8.34 0 8 C-0.33 6.68 -0.66 5.36 -1 4 C-3.31 3.67 -5.62 3.34 -8 3 C-8 2.67 -8 2.34 -8 2 C-6.71254964 1.61077082 -5.41980403 1.23901964 -4.125 0.875 C-3.04605469 0.56175781 -3.04605469 0.56175781 -1.9453125 0.2421875 C-1.30335938 0.16226562 -0.66140625 0.08234375 0 0 Z " fill="#3E4149" transform="translate(534,395)"/>
<path d="M0 0 C0.66 0 1.32 0 2 0 C3.76462683 3.08809695 4 4.23312136 4 8 C2.02 8 0.04 8 -2 8 C-1.33333333 5.33333333 -0.66666667 2.66666667 0 0 Z " fill="#E2E4E5" transform="translate(506,389)"/>
<path d="M0 0 C3.375 -0.125 3.375 -0.125 7 0 C7.66 0.66 8.32 1.32 9 2 C8.625 4.625 8.625 4.625 8 7 C7.67 5.68 7.34 4.36 7 3 C4.69 3 2.38 3 0 3 C0 2.01 0 1.02 0 0 Z " fill="#34D509" transform="translate(126,318)"/>
<path d="M0 0 C0.33 0.99 0.66 1.98 1 3 C-0.04800781 4.03060547 -0.04800781 4.03060547 -1.1171875 5.08203125 C-2.02726562 5.98308594 -2.93734375 6.88414062 -3.875 7.8125 C-4.77992187 8.70582031 -5.68484375 9.59914063 -6.6171875 10.51953125 C-9.09831514 12.95638333 -9.09831514 12.95638333 -11 16 C-10.58269656 11.14329827 -8.1999142 8.54863925 -4.9375 5.1875 C-4.46505859 4.68541016 -3.99261719 4.18332031 -3.50585938 3.66601562 C-2.34591548 2.43577211 -1.17411185 1.21672935 0 0 Z " fill="#E8E5E6" transform="translate(105,385)"/>
<path d="M0 0 C4.29 0 8.58 0 13 0 C12.67 0.99 12.34 1.98 12 3 C8.04 3 4.08 3 0 3 C0 2.01 0 1.02 0 0 Z " fill="#2A3B4A" transform="translate(422,309)"/>
<path d="M0 0 C4.51617599 -0.07654536 8.59085217 -0.10228696 13 1 C13 1.33 13 1.66 13 2 C9.7 2 6.4 2 3 2 C3 3.65 3 5.3 3 7 C0.64046906 4.64046906 0.50858587 3.22104383 0 0 Z " fill="#355364" transform="translate(133,383)"/>
<path d="M0 0 C0.66 0.33 1.32 0.66 2 1 C2.36263859 6.8022175 1.25684543 10.63999211 -1 16 C-2.22602512 12.32192463 -1.70295577 10.11756073 -1.0625 6.3125 C-0.86785156 5.13300781 -0.67320312 3.95351563 -0.47265625 2.73828125 C-0.31667969 1.83464844 -0.16070312 0.93101562 0 0 Z " fill="#24323E" transform="translate(224,346)"/>
<path d="M0 0 C0.33 0.66 0.66 1.32 1 2 C0.01 2 -0.98 2 -2 2 C-2.66 5.3 -3.32 8.6 -4 12 C-4.33 12 -4.66 12 -5 12 C-5 8.37 -5 4.74 -5 1 C-3.35 0.67 -1.7 0.34 0 0 Z " fill="#072236" transform="translate(110,416)"/>
<path d="M0 0 C0.33 0.66 0.66 1.32 1 2 C1.66 2 2.32 2 3 2 C3 3.32 3 4.64 3 6 C4.32 5.67 5.64 5.34 7 5 C7 5.66 7 6.32 7 7 C4.6739143 7.38063221 2.33944736 7.71269945 0 8 C-0.33 7.67 -0.66 7.34 -1 7 C-0.71269945 4.66055264 -0.38063221 2.3260857 0 0 Z " fill="#293A4B" transform="translate(85,403)"/>
<path d="M0 0 C2.97 0 5.94 0 9 0 C9.33 1.65 9.66 3.3 10 5 C9.01 5 8.02 5 7 5 C7 4.01 7 3.02 7 2 C4.69 2 2.38 2 0 2 C0 1.34 0 0.68 0 0 Z " fill="#1A1C24" transform="translate(323,385)"/>
<path d="M0 0 C2.33944736 0.28730055 4.6739143 0.61936779 7 1 C7 2.32 7 3.64 7 5 C4.6875 5.25 4.6875 5.25 2 5 C0.1875 3 0.1875 3 -1 1 C-0.67 0.67 -0.34 0.34 0 0 Z " fill="#253443" transform="translate(71,341)"/>
<path d="M0 0 C2.49361571 1.20381448 4.68143083 2.45428722 7 4 C9.27912938 4.45394552 9.27912938 4.45394552 11.6875 4.625 C12.89986328 4.73714844 12.89986328 4.73714844 14.13671875 4.8515625 C14.75160156 4.90054687 15.36648438 4.94953125 16 5 C11.94188082 7.28213705 9.56078248 7.20020592 5 6 C2.0625 3.5 2.0625 3.5 0 1 C0 0.67 0 0.34 0 0 Z " fill="#203743" transform="translate(260,335)"/>
<path d="M0 0 C0.99 0.33 1.98 0.66 3 1 C2.38125 1.7425 1.7625 2.485 1.125 3.25 C-0.60437281 5.48801188 -1.86106661 7.43739987 -3 10 C-3.33 10 -3.66 10 -4 10 C-4.25 7.25 -4.25 7.25 -4 4 C-2 1.625 -2 1.625 0 0 Z " fill="#113345" transform="translate(181,311)"/>
<path d="M0 0 C2.97 0 5.94 0 9 0 C9.33 1.65 9.66 3.3 10 5 C9.34 5 8.68 5 8 5 C7.67 4.34 7.34 3.68 7 3 C5.10466658 2.53476937 5.10466658 2.53476937 2.9375 2.375 C1.638125 2.25125 0.33875 2.1275 -1 2 C-0.67 1.34 -0.34 0.68 0 0 Z " fill="#0F0F18" transform="translate(482,385)"/>
<path d="M0 0 C2 1.8125 2 1.8125 4 4 C4 4.99 4 5.98 4 7 C0.04 7 -3.92 7 -8 7 C-8 6.67 -8 6.34 -8 6 C-4.535 5.505 -4.535 5.505 -1 5 C-0.67 3.35 -0.34 1.7 0 0 Z " fill="#555F68" transform="translate(538,360)"/>
<path d="M0 0 C0.33 0 0.66 0 1 0 C1 1.98 1 3.96 1 6 C-2.31044803 7.10348268 -4.65506316 6.99444068 -8 6 C-8.33 5.34 -8.66 4.68 -9 4 C-6.69 4 -4.38 4 -2 4 C-1.34 2.68 -0.68 1.36 0 0 Z " fill="#0B2536" transform="translate(119,344)"/>
<path d="M0 0 C0.66 0 1.32 0 2 0 C2 0.99 2 1.98 2 3 C2.99 3 3.98 3 5 3 C3.875 4.5 3.875 4.5 2 6 C-1.1875 6.1875 -1.1875 6.1875 -4 6 C-2.84826645 3.53199953 -1.95216435 1.95216435 0 0 Z " fill="#182A37" transform="translate(91,357)"/>
<path d="M0 0 C1.65 0 3.3 0 5 0 C5.33 1.65 5.66 3.3 6 5 C4.35 4.67 2.7 4.34 1 4 C0.67 2.68 0.34 1.36 0 0 Z " fill="#DEDBDA" transform="translate(110,344)"/>
<path d="M0 0 C2.875 0.6875 2.875 0.6875 6 2 C7.375 4.625 7.375 4.625 8 7 C7.236875 6.62875 6.47375 6.2575 5.6875 5.875 C4.3571875 5.441875 4.3571875 5.441875 3 5 C2.01 5.66 1.02 6.32 0 7 C0.66 5.35 1.32 3.7 2 2 C1.01 2.33 0.02 2.66 -1 3 C-0.67 2.01 -0.34 1.02 0 0 Z " fill="#132B38" transform="translate(106,290)"/>
<path d="M0 0 C2 2 2 2 2.125 5.125 C2.08375 6.07375 2.0425 7.0225 2 8 C0.68 7.67 -0.64 7.34 -2 7 C-2.33 5.35 -2.66 3.7 -3 2 C-2.01 1.34 -1.02 0.68 0 0 Z " fill="#2D495D" transform="translate(107,364)"/>
<path d="M0 0 C1.32 0.33 2.64 0.66 4 1 C4.33 2.32 4.66 3.64 5 5 C3.0625 5.5625 3.0625 5.5625 1 6 C0 5 0 5 -0.0625 2.4375 C-0.041875 1.633125 -0.02125 0.82875 0 0 Z " fill="#D0D4D6" transform="translate(130,404)"/>
<path d="M0 0 C2.31 0 4.62 0 7 0 C7 0.66 7 1.32 7 2 C6.360625 2.103125 5.72125 2.20625 5.0625 2.3125 C4.381875 2.539375 3.70125 2.76625 3 3 C2.67 3.99 2.34 4.98 2 6 C1.34 6 0.68 6 0 6 C0 4.02 0 2.04 0 0 Z " fill="#30DA08" transform="translate(147,340)"/>
<path d="M0 0 C0.66 0 1.32 0 2 0 C3.42258812 3.82320557 4.24042276 6.91281305 4 11 C3.01 10.67 2.02 10.34 1 10 C0.67 6.7 0.34 3.4 0 0 Z " fill="#194253" transform="translate(111,300)"/>
<path d="M0 0 C2.0625 0.4375 2.0625 0.4375 4 1 C3 3 3 3 1 5 C0.01 6.485 0.01 6.485 -1 8 C-1.66 7.67 -2.32 7.34 -3 7 C-1.125 1.125 -1.125 1.125 0 0 Z " fill="#35353B" transform="translate(526,387)"/>
<path d="M0 0 C1.98 0.99 1.98 0.99 4 2 C4 4.64 4 7.28 4 10 C3.01 9.67 2.02 9.34 1 9 C0.67 6.03 0.34 3.06 0 0 Z " fill="#353B46" transform="translate(297,385)"/>
<path d="M0 0 C-1.29299694 2.88437779 -2.65941363 4.87219421 -5 7 C-5.99 6.67 -6.98 6.34 -8 6 C-7.34 5.01 -6.68 4.02 -6 3 C-5.34 3 -4.68 3 -4 3 C-4 2.34 -4 1.68 -4 1 C-2 0 -2 0 0 0 Z " fill="#29292C" transform="translate(442,384)"/>
<path d="M0 0 C1.98 0.495 1.98 0.495 4 1 C4 2.32 4 3.64 4 5 C2.35 4.67 0.7 4.34 -1 4 C-0.67 2.68 -0.34 1.36 0 0 Z " fill="#D2F3C3" transform="translate(150,342)"/>
<path d="M0 0 C0.66 0 1.32 0 2 0 C1.979375 0.9075 1.95875 1.815 1.9375 2.75 C1.9889755 5.42672588 2.2215017 7.46988052 3 10 C-0.91941982 6.69298952 -0.91941982 6.69298952 -1.3125 3.3125 C-1 1 -1 1 0 0 Z " fill="#112A37" transform="translate(101,299)"/>
<path d="M0 0 C0.99 0 1.98 0 3 0 C3 2.31 3 4.62 3 7 C2.01 7 1.02 7 0 7 C0 4.69 0 2.38 0 0 Z " fill="#E4E1D9" transform="translate(108,419)"/>
<path d="M0 0 C0.66 0.66 1.32 1.32 2 2 C1.625 4.625 1.625 4.625 1 7 C0.01 7 -0.98 7 -2 7 C-1.125 1.125 -1.125 1.125 0 0 Z " fill="#C9CCCE" transform="translate(90,402)"/>
<path d="M0 0 C0.33 0.99 0.66 1.98 1 3 C-2.3 3 -5.6 3 -9 3 C-9 4.65 -9 6.3 -9 8 C-9.33 8 -9.66 8 -10 8 C-10.33 5.69 -10.66 3.38 -11 1 C-7.37 1.33 -3.74 1.66 0 2 C0 1.34 0 0.68 0 0 Z " fill="#3E444F" transform="translate(461,393)"/>
<path d="M0 0 C1.98 0.495 1.98 0.495 4 1 C3.67 2.32 3.34 3.64 3 5 C1.68 4.67 0.36 4.34 -1 4 C-0.67 2.68 -0.34 1.36 0 0 Z " fill="#DCDEDD" transform="translate(150,380)"/>
<path d="M0 0 C1.32 0 2.64 0 4 0 C2.60667426 3.36720387 1.0210714 4.9859524 -2 7 C-2 3 -2 3 0 0 Z " fill="#0E2231" transform="translate(97,368)"/>
<path d="M0 0 C3.96 0.33 7.92 0.66 12 1 C12 1.33 12 1.66 12 2 C10.37585622 2.19477739 8.75063577 2.38059458 7.125 2.5625 C6.22007812 2.66691406 5.31515625 2.77132813 4.3828125 2.87890625 C2 3 2 3 0 2 C0 1.34 0 0.68 0 0 Z " fill="#2B4352" transform="translate(265,364)"/>
<path d="M0 0 C2.64 0 5.28 0 8 0 C8 0.33 8 0.66 8 1 C5.69 1 3.38 1 1 1 C1 3.31 1 5.62 1 8 C0.67 6.68 0.34 5.36 0 4 C-0.66 4 -1.32 4 -2 4 C-1.34 2.68 -0.68 1.36 0 0 Z " fill="#6A6C74" transform="translate(322,384)"/>
<path d="M0 0 C0 0.66 0 1.32 0 2 C-7.38461538 4.21538462 -7.38461538 4.21538462 -10.5 3.125 C-10.995 2.75375 -11.49 2.3825 -12 2 C-8.09971775 -0.60018816 -4.52565431 -0.15085514 0 0 Z " fill="#344453" transform="translate(110,355)"/>
<path d="M0 0 C1.32 0.99 2.64 1.98 4 3 C4.99 2.34 5.98 1.68 7 1 C6.67 2.32 6.34 3.64 6 5 C4.02 5 2.04 5 0 5 C0 3.35 0 1.7 0 0 Z " fill="#243D4E" transform="translate(93,348)"/>
<path d="M0 0 C0.66 0 1.32 0 2 0 C2.33 1.32 2.66 2.64 3 4 C1.68 4.99 0.36 5.98 -1 7 C-2 4 -2 4 -1.0625 1.8125 C-0.5365625 0.9153125 -0.5365625 0.9153125 0 0 Z " fill="#182B37" transform="translate(145,347)"/>
<path d="M0 0 C0.99 0.33 1.98 0.66 3 1 C3.33 1.99 3.66 2.98 4 4 C3.01 4 2.02 4 1 4 C0.67 5.32 0.34 6.64 0 8 C0 6.35 0 4.7 0 3 C-0.99 2.67 -1.98 2.34 -3 2 C-2.01 2 -1.02 2 0 2 C0 1.34 0 0.68 0 0 Z " fill="#2C4654" transform="translate(111,416)"/>
<path d="M0 0 C2.5654594 2.5654594 2.54046087 4.47686668 3 8 C2.01 8 1.02 8 0 8 C-1.125 2.25 -1.125 2.25 0 0 Z " fill="#373A41" transform="translate(513,396)"/>
<path d="M0 0 C0.33 0 0.66 0 1 0 C1 1.65 1 3.3 1 5 C-0.65 5 -2.3 5 -4 5 C-4.66 3.68 -5.32 2.36 -6 1 C-3 1 -3 1 -1 2 C-0.67 1.34 -0.34 0.68 0 0 Z " fill="#3B5868" transform="translate(130,391)"/>
<path d="M0 0 C1.98 0 3.96 0 6 0 C6 0.99 6 1.98 6 3 C4.35 3.33 2.7 3.66 1 4 C0.67 2.68 0.34 1.36 0 0 Z " fill="#32D510" transform="translate(68,371)"/>
<path d="M0 0 C0.99 0.99 1.98 1.98 3 3 C2.01 3.99 1.02 4.98 0 6 C-0.99 5.01 -1.98 4.02 -3 3 C-2.01 2.01 -1.02 1.02 0 0 Z " fill="#2A3F4D" transform="translate(83,365)"/>
<path d="M0 0 C2.88575819 0.39803561 3.82189513 0.79009069 5.75 3.0625 C6.1625 3.701875 6.575 4.34125 7 5 C6.67 5.66 6.34 6.32 6 7 C3.95880212 5.38405168 1.95927063 3.7143618 0 2 C0 1.34 0 0.68 0 0 Z " fill="#063D57" transform="translate(110,361)"/>
<path d="M0 0 C2.125 0.375 2.125 0.375 4 1 C3.360625 1.556875 2.72125 2.11375 2.0625 2.6875 C-0.19680987 5.22066561 -0.63149047 6.68341424 -1 10 C-1.33 10 -1.66 10 -2 10 C-2.1953125 3.9453125 -2.1953125 3.9453125 -2 2 C-1.34 1.34 -0.68 0.68 0 0 Z " fill="#BCB7B6" transform="translate(271,320)"/>
<path d="M0 0 C0.66 0.66 1.32 1.32 2 2 C1.75 4.0625 1.75 4.0625 1 6 C0.01 6.495 0.01 6.495 -1 7 C-1 6.01 -1 5.02 -1 4 C-1.66 3.67 -2.32 3.34 -3 3 C-2.01 2.01 -1.02 1.02 0 0 Z " fill="#082D3F" transform="translate(116,302)"/>
<path d="M0 0 C1.98 0.495 1.98 0.495 4 1 C4 1.66 4 2.32 4 3 C4.99 3 5.98 3 7 3 C6.67 3.99 6.34 4.98 6 6 C4.68 5.67 3.36 5.34 2 5 C2 4.01 2 3.02 2 2 C1.01 2.33 0.02 2.66 -1 3 C-0.67 2.01 -0.34 1.02 0 0 Z " fill="#2F4753" transform="translate(101,297)"/>
<path d="M0 0 C0.66 0 1.32 0 2 0 C1.67 1.98 1.34 3.96 1 6 C0.01 6 -0.98 6 -2 6 C-1.125 1.125 -1.125 1.125 0 0 Z " fill="#142B3B" transform="translate(88,399)"/>
<path d="M0 0 C1.65 0 3.3 0 5 0 C4.01 0.66 3.02 1.32 2 2 C0.79549696 4.55183404 0.79549696 4.55183404 0 7 C-0.66 7 -1.32 7 -2 7 C-1.34 4.69 -0.68 2.38 0 0 Z " fill="#20445A" transform="translate(101,382)"/>
<path d="M0 0 C1.98 0 3.96 0 6 0 C6 0.99 6 1.98 6 3 C4.68 3.33 3.36 3.66 2 4 C2.33 3.01 2.66 2.02 3 1 C1.68 1.33 0.36 1.66 -1 2 C-0.67 1.34 -0.34 0.68 0 0 Z " fill="#47525E" transform="translate(148,376)"/>
<path d="M0 0 C1.65 0 3.3 0 5 0 C4.67 1.32 4.34 2.64 4 4 C2.68 3.67 1.36 3.34 0 3 C0 2.01 0 1.02 0 0 Z " fill="#E8FAE3" transform="translate(69,375)"/>
<path d="M0 0 C0.99 0.33 1.98 0.66 3 1 C2.34 1 1.68 1 1 1 C1.33 2.32 1.66 3.64 2 5 C0.35 5.66 -1.3 6.32 -3 7 C-2.67 5.68 -2.34 4.36 -2 3 C-1.34 3 -0.68 3 0 3 C0 2.01 0 1.02 0 0 Z " fill="#062A42" transform="translate(105,360)"/>
<path d="M0 0 C2.18975773 3.28463659 2.99806563 6.20696275 4 10 C3.01 10 2.02 10 1 10 C0.67 6.7 0.34 3.4 0 0 Z " fill="#2D4351" transform="translate(474,336)"/>
<path d="M0 0 C0.66 0.99 1.32 1.98 2 3 C0.68 4.32 -0.64 5.64 -2 7 C-2 6.34 -2 5.68 -2 5 C-2.66 4.67 -3.32 4.34 -4 4 C-2.68 2.68 -1.36 1.36 0 0 Z " fill="#334959" transform="translate(89,375)"/>
<path d="M0 0 C5.875 4.625 5.875 4.625 7 8 C4.13792848 6.71700242 1.9754912 5.469364 0 3 C0 2.01 0 1.02 0 0 Z " fill="#304149" transform="translate(177,333)"/>
<path d="M0 0 C0.66 0 1.32 0 2 0 C2.33 1.32 2.66 2.64 3 4 C1.35 5.32 -0.3 6.64 -2 8 C-1.34 5.36 -0.68 2.72 0 0 Z " fill="#D2CFCA" transform="translate(456,322)"/>
<path d="M0 0 C0.99 0 1.98 0 3 0 C3.33 1.65 3.66 3.3 4 5 C2.68 5 1.36 5 0 5 C0 3.35 0 1.7 0 0 Z " fill="#506775" transform="translate(82,322)"/>
<path d="M0 0 C1.32 0 2.64 0 4 0 C3.67 2.31 3.34 4.62 3 7 C0 3.375 0 3.375 0 0 Z " fill="#033551" transform="translate(102,302)"/>
</svg>
